<svg width="281" height="104" viewBox="0 0 281 104" fill="none" xmlns="http://www.w3.org/2000/svg">
<path d="M80.3394 68.4404C77.5576 68.4404 75.0765 67.8743 72.8962 66.742C70.7534 65.5719 69.0617 63.9112 67.8212 61.7598C66.5807 59.6084 65.9604 57.0607 65.9604 54.1167L65.9604 53.2675C65.9604 50.3235 66.5807 47.7947 67.8212 45.681C69.0617 43.5296 70.7534 41.8689 72.8962 40.6989C75.0765 39.5288 77.5576 38.9438 80.3394 38.9438C83.1213 38.9438 85.6023 39.5288 87.7827 40.6989C89.963 41.8689 91.6735 43.5297 92.914 45.681C94.1546 47.7947 94.7748 50.3235 94.7748 53.2675L94.7748 54.1167C94.7748 57.0607 94.1546 59.6084 92.914 61.7598C91.6735 63.9112 89.963 65.5719 87.7827 66.742C85.6023 67.8743 83.1213 68.4404 80.3394 68.4404ZM80.3394 63.2318C82.8957 63.2318 84.9633 62.4203 86.5421 60.7973C88.1586 59.1366 88.9668 56.8531 88.9668 53.9469L88.9668 53.4373C88.9668 50.5311 88.1774 48.2665 86.5985 46.6435C85.0197 44.9828 82.9333 44.1524 80.3394 44.1524C77.8207 44.1524 75.7532 44.9828 74.1367 46.6435C72.5578 48.2665 71.7684 50.5311 71.7684 53.4373L71.7684 53.9469C71.7684 56.8531 72.5578 59.1366 74.1367 60.7973C75.7532 62.4203 77.8207 63.2318 80.3394 63.2318Z" fill="#563BA2"/>
<path d="M102.006 67.6478L102.006 39.7364L107.701 39.7364L107.701 43.0201L108.603 43.0201C109.054 41.8501 109.769 41.0008 110.746 40.4724C111.761 39.9063 113.002 39.6232 114.468 39.6232L117.795 39.6232L117.795 44.8884L114.242 44.8884C112.362 44.8884 110.821 45.4168 109.618 46.4737C108.415 47.4927 107.814 49.078 107.814 51.2293L107.814 67.6478L102.006 67.6478Z" fill="#563BA2"/>
<path fill-rule="evenodd" clip-rule="evenodd" d="M28.2881 62.2127L28.2881 67.6478L48.4187 67.6478C50.7495 67.6478 52.7982 67.2326 54.5651 66.4023C56.3695 65.5719 57.7792 64.383 58.7942 62.8355C59.8092 61.288 60.3167 59.4197 60.3167 57.2306L60.3167 56.6644C60.3167 54.7772 59.9596 53.2486 59.2453 52.0786C58.5687 50.9085 57.7228 50.0027 56.7078 49.361C55.7304 48.6817 54.8094 48.2287 53.9448 48.0023L53.9448 47.0964C54.8094 46.8322 55.7116 46.3793 56.6515 45.7377C57.6289 45.096 58.4559 44.1902 59.1325 43.0201C59.8092 41.8501 60.1475 40.3592 60.1475 38.5475L60.1475 37.9813C60.1475 35.9432 59.64 34.1881 58.625 32.7161C57.6476 31.2064 56.2755 30.0552 54.5087 29.2626C52.7419 28.4322 50.6743 28.017 48.306 28.017L28.2881 28.017L28.2881 33.4521L33.5886 33.4521L33.5886 62.2127L28.2881 62.2127ZM47.6857 62.0995L39.7349 62.0995L39.7349 50.4933L39.7349 44.8884L39.7349 33.5653L47.6857 33.5653C49.6405 33.5653 51.1818 34.056 52.3095 35.0373C53.4749 35.9809 54.0576 37.2831 54.0576 38.9438L54.0576 39.51C54.0576 41.1707 53.4749 42.4917 52.3095 43.473C51.1442 44.4166 49.6029 44.8884 47.6857 44.8884L43.2411 44.8884L43.2395 50.4933L47.6857 50.4933C49.7533 50.4933 51.3509 50.984 52.4787 51.9653C53.6441 52.9467 54.2268 54.3054 54.2268 56.0417L54.2268 56.5512C54.2268 58.2874 53.6441 59.6462 52.4787 60.6275C51.3133 61.6088 49.7157 62.0995 47.6857 62.0995Z" fill="#563BA2"/>
<path fill-rule="evenodd" clip-rule="evenodd" d="M126.312 67.4213C127.891 68.1007 129.676 68.4404 131.669 68.4404C133.586 68.4404 135.127 68.1762 136.293 67.6478C137.458 67.0817 138.341 66.4211 138.943 65.6663C139.544 64.9114 139.995 64.2509 140.296 63.6847L141.142 63.6847L141.142 63.8546C141.142 65.0246 141.556 65.9493 142.383 66.6287C143.21 67.3081 144.281 67.6478 145.597 67.6478L149.939 67.6478L149.939 62.7789L147.57 62.7789C146.518 62.7789 145.991 62.2127 145.991 61.0804L145.991 49.5875C145.991 46.1906 144.958 43.5674 142.89 41.718C140.822 39.8685 137.984 38.9438 134.375 38.9438C132.045 38.9438 130.052 39.3212 128.398 40.0761C126.744 40.831 125.41 41.8312 124.395 43.0767C123.417 44.2845 122.703 45.6433 122.252 47.153L127.665 48.9081C128.003 47.3984 128.699 46.1717 129.752 45.2281C130.804 44.2845 132.327 43.8127 134.319 43.8127C136.349 43.8127 137.853 44.3034 138.83 45.2847C139.807 46.2661 140.296 47.5682 140.296 49.1912L140.296 51.0029L140.296 55.5321L140.296 56.0983C140.296 58.4384 139.582 60.2878 138.153 61.6466C136.725 62.9676 134.845 63.6281 132.515 63.6281C130.823 63.6281 129.488 63.2507 128.511 62.4958C127.534 61.7409 127.045 60.7219 127.045 59.4386C127.045 58.1553 127.515 57.1928 128.455 56.5512C129.394 55.8718 130.635 55.5321 132.176 55.5321L138.328 55.5321L138.329 51.0029L131.838 51.0029C129.808 51.0029 127.985 51.3237 126.368 51.9653C124.789 52.607 123.53 53.5694 122.59 54.8527C121.688 56.0983 121.237 57.6835 121.237 59.6084C121.237 61.4956 121.688 63.0997 122.59 64.4207C123.53 65.7418 124.771 66.742 126.312 67.4213Z" fill="#563BA2"/>
<path d="M72.0596 103.034L72.0596 75.1223L77.7548 75.1223L77.7548 78.406L78.657 78.406C79.1081 77.236 79.8224 76.3868 80.7998 75.8583C81.8148 75.2922 83.0553 75.0091 84.5214 75.0091L87.8483 75.0091L87.8483 80.2743L84.2959 80.2743C82.4162 80.2743 80.875 80.8028 79.672 81.8596C78.4691 82.8787 77.8676 84.4639 77.8676 86.6153L77.8676 103.034L72.0596 103.034Z" fill="#563BA2"/>
<path d="M137.892 103.826C135.223 103.826 132.798 103.26 130.618 102.128C128.475 100.996 126.764 99.3537 125.486 97.2024C124.246 95.051 123.625 92.4655 123.625 89.446L123.625 88.71C123.625 85.6906 124.246 83.124 125.486 81.0103C126.764 78.859 128.475 77.2171 130.618 76.0848C132.798 74.9148 135.223 74.3297 137.892 74.3297C140.561 74.3297 142.835 74.8204 144.715 75.8017C146.594 76.7831 148.098 78.0852 149.226 79.7082C150.391 81.3312 151.143 83.124 151.481 85.0867L145.842 86.2756C145.654 85.03 145.26 83.8977 144.658 82.8787C144.057 81.8596 143.211 81.0481 142.121 80.4442C141.031 79.8403 139.659 79.5383 138.004 79.5383C136.388 79.5383 134.922 79.9158 133.606 80.6707C132.328 81.3878 131.313 82.4446 130.561 83.8411C129.809 85.1999 129.433 86.8606 129.433 88.8233L129.433 89.3328C129.433 91.2955 129.809 92.9751 130.561 94.3716C131.313 95.7681 132.328 96.8249 133.606 97.542C134.922 98.2592 136.388 98.6177 138.004 98.6177C140.448 98.6177 142.309 97.995 143.587 96.7494C144.865 95.4661 145.673 93.8432 146.012 91.8805L151.65 93.1827C151.199 95.1076 150.391 96.8815 149.226 98.5045C148.098 100.127 146.594 101.43 144.715 102.411C142.835 103.355 140.561 103.826 137.892 103.826Z" fill="#563BA2"/>
<path d="M225.586 103.034L225.586 75.1223L231.281 75.1223L231.281 78.406L232.183 78.406C232.634 77.236 233.349 76.3868 234.326 75.8583C235.341 75.2922 236.581 75.0091 238.048 75.0091L241.375 75.0091L241.375 80.2743L237.822 80.2743C235.942 80.2743 234.401 80.8028 233.198 81.8596C231.995 82.8787 231.394 84.4639 231.394 86.6153L231.394 103.034L225.586 103.034Z" fill="#563BA2"/>
<path fill-rule="evenodd" clip-rule="evenodd" d="M96.3656 102.807C97.9445 103.487 99.7301 103.826 101.723 103.826C103.64 103.826 105.181 103.562 106.346 103.034C107.512 102.468 108.395 101.807 108.997 101.052C109.598 100.297 110.049 99.6368 110.35 99.0707L111.196 99.0707L111.196 99.2405C111.196 100.411 111.609 101.335 112.436 102.015C113.263 102.694 114.335 103.034 115.65 103.034L119.992 103.034L119.992 98.1648L117.624 98.1648C116.571 98.1648 116.045 97.5987 116.045 96.4664L116.045 84.9734C116.045 81.5765 115.011 78.9533 112.944 77.1039C110.876 75.2544 108.038 74.3297 104.429 74.3297C102.098 74.3297 100.106 74.7072 98.452 75.462C96.7979 76.2169 95.4634 77.2171 94.4484 78.4627C93.471 79.6704 92.7568 81.0292 92.3056 82.539L97.7189 84.294C98.0573 82.7843 98.7527 81.5576 99.8053 80.614C100.858 79.6704 102.38 79.1987 104.373 79.1987C106.403 79.1987 107.906 79.6893 108.884 80.6707C109.861 81.652 110.35 82.9541 110.35 84.5771L110.35 86.3888L110.35 90.918L110.35 91.4842C110.35 93.8243 109.636 95.6737 108.207 97.0325C106.779 98.3535 104.899 99.014 102.568 99.014C100.877 99.014 99.5422 98.6366 98.5648 97.8817C97.5874 97.1269 97.0987 96.1078 97.0987 94.8245C97.0987 93.5412 97.5686 92.5788 98.5084 91.9371C99.4482 91.2577 100.689 90.918 102.23 90.918L108.375 90.918L108.366 86.3888L101.892 86.3888C99.8617 86.3888 98.0385 86.7096 96.422 87.3513C94.8431 87.9929 93.5838 88.9554 92.644 90.2387C91.7418 91.4842 91.2907 93.0694 91.2907 94.9943C91.2907 96.8815 91.7418 98.4856 92.644 99.8067C93.5838 101.128 94.8243 102.128 96.3656 102.807Z" fill="#563BA2"/>
<path fill-rule="evenodd" clip-rule="evenodd" d="M158.349 63.403L158.349 103.034L164.157 103.034L164.157 88.9365L164.157 79.0854L164.157 63.403L158.349 63.403ZM166.325 77.3187C166.325 77.3187 166.15 77.907 166.142 79.688C166.133 81.469 166.3 82.0294 166.3 82.0294C167.766 80.4442 169.702 79.6516 172.108 79.6516C174.213 79.6516 175.867 80.2366 177.07 81.4067C178.273 82.539 178.875 84.3129 178.875 86.7285L178.875 103.034L184.683 103.034L184.683 86.2756C184.683 83.86 184.213 81.803 183.273 80.1045C182.333 78.3683 181.036 77.0284 179.382 76.0848C177.766 75.1412 175.905 74.6694 173.8 74.6694C172.033 74.6694 170.567 74.8959 169.401 75.3488C168.274 75.764 167.353 76.3113 166.638 76.9907C166.53 77.0995 166.425 77.2089 166.325 77.3187Z" fill="#563BA2"/>
<path fill-rule="evenodd" clip-rule="evenodd" d="M196.312 102.807C197.891 103.487 199.676 103.826 201.669 103.826C203.586 103.826 205.127 103.562 206.293 103.034C207.458 102.468 208.341 101.807 208.943 101.052C209.544 100.297 209.995 99.6368 210.296 99.0707L211.142 99.0707L211.142 99.2405C211.142 100.411 211.555 101.335 212.383 102.015C213.21 102.694 214.281 103.034 215.597 103.034L219.939 103.034L219.939 98.1648L217.57 98.1648C216.518 98.1648 215.991 97.5987 215.991 96.4664L215.991 84.9734C215.991 81.5765 214.958 78.9533 212.89 77.1039C210.822 75.2544 207.984 74.3297 204.375 74.3297C202.045 74.3297 200.052 74.7072 198.398 75.462C196.744 76.2169 195.41 77.2171 194.395 78.4627C193.417 79.6704 192.703 81.0292 192.252 82.539L197.665 84.294C198.003 82.7843 198.699 81.5576 199.752 80.614C200.804 79.6704 202.327 79.1987 204.319 79.1987C206.349 79.1987 207.853 79.6893 208.83 80.6707C209.807 81.652 210.296 82.9541 210.296 84.5771L210.296 86.3888L210.296 90.918L210.296 91.4842C210.296 93.8243 209.582 95.6737 208.153 97.0325C206.725 98.3535 204.845 99.014 202.515 99.014C200.823 99.014 199.488 98.6366 198.511 97.8817C197.534 97.1269 197.045 96.1078 197.045 94.8245C197.045 93.5412 197.515 92.5788 198.455 91.9371C199.394 91.2577 200.635 90.918 202.176 90.918L208.317 90.918L208.321 86.3888L201.838 86.3888C199.808 86.3888 197.985 86.7096 196.368 87.3513C194.789 87.9929 193.53 88.9554 192.59 90.2387C191.688 91.4842 191.237 93.0694 191.237 94.9943C191.237 96.8815 191.688 98.4856 192.59 99.8067C193.53 101.128 194.771 102.128 196.312 102.807Z" fill="#563BA2"/>
<path d="M27.6451 30.7392C27.6451 29.2391 27.9445 28.023 28.3138 28.023C28.6831 28.023 28.9824 29.2391 28.9824 30.7392C28.9824 32.2393 28.6831 33.4554 28.3138 33.4554C27.9445 33.4554 27.6451 32.2393 27.6451 30.7392Z" fill="#563BA2"/>
<path d="M27.6451 64.9369C27.6451 63.4401 27.9445 62.2267 28.3138 62.2267C28.6831 62.2267 28.9824 63.4401 28.9824 64.9369C28.9824 66.4338 28.6831 67.6472 28.3138 67.6472C27.9445 67.6472 27.6451 66.4338 27.6451 64.9369Z" fill="#563BA2"/>
<path d="M117.176 42.2631C117.176 40.8101 117.476 39.6321 117.845 39.6321C118.214 39.6321 118.514 40.8101 118.514 42.2631C118.514 43.7162 118.214 44.8942 117.845 44.8942C117.476 44.8942 117.176 43.7162 117.176 42.2631Z" fill="#563BA2"/>
<path d="M87.1832 77.6491C87.1832 76.196 87.4826 75.018 87.8519 75.018C88.2211 75.018 88.5205 76.196 88.5205 77.6491C88.5205 79.1021 88.2211 80.2801 87.8519 80.2801C87.4826 80.2801 87.1832 79.1021 87.1832 77.6491Z" fill="#563BA2"/>
<path d="M119.364 100.622C119.364 99.2785 119.663 98.1895 120.033 98.1895C120.402 98.1895 120.701 99.2785 120.701 100.622C120.701 101.965 120.402 103.054 120.033 103.054C119.663 103.054 119.364 101.965 119.364 100.622Z" fill="#563BA2"/>
<path d="M95.2557 82.7987C96.7476 83.3019 97.8617 83.9948 97.7441 84.3462C97.6265 84.6977 96.3218 84.5747 94.8298 84.0715C93.3379 83.5682 92.2238 82.8754 92.3414 82.5239C92.459 82.1724 93.7637 82.2954 95.2557 82.7987Z" fill="#563BA2"/>
<path d="M109.06 88.6519C109.06 89.8995 108.761 90.9109 108.392 90.9109C108.023 90.9109 107.723 89.8995 107.723 88.6519C107.723 87.4043 108.023 86.3929 108.392 86.3929C108.761 86.3929 109.06 87.4043 109.06 88.6519Z" fill="#563BA2"/>
<path d="M74.9396 74.4834C76.5135 74.4834 77.7894 74.7839 77.7894 75.1547C77.7894 75.5255 76.5135 75.826 74.9396 75.826C73.3657 75.826 72.0898 75.5255 72.0898 75.1547C72.0898 74.7839 73.3657 74.4834 74.9396 74.4834Z" fill="#563BA2"/>
<path d="M219.313 100.601C219.313 99.2573 219.612 98.1683 219.981 98.1683C220.351 98.1683 220.65 99.2573 220.65 100.601C220.65 101.944 220.351 103.033 219.981 103.033C219.612 103.033 219.313 101.944 219.313 100.601Z" fill="#563BA2"/>
<path d="M195.204 82.7774C196.696 83.2807 197.81 83.9735 197.693 84.325C197.575 84.6765 196.27 84.5534 194.779 84.0502C193.287 83.547 192.172 82.8541 192.29 82.5026C192.408 82.1512 193.712 82.2742 195.204 82.7774Z" fill="#563BA2"/>
<path d="M209.013 88.6579C209.013 89.9055 208.713 90.9169 208.344 90.9169C207.975 90.9169 207.675 89.9055 207.675 88.6579C207.675 87.4104 207.975 86.399 208.344 86.399C208.713 86.399 209.013 87.4104 209.013 88.6579Z" fill="#563BA2"/>
<path d="M228.452 74.4864C230.026 74.4864 231.302 74.787 231.302 75.1578C231.302 75.5285 230.026 75.8291 228.452 75.8291C226.878 75.8291 225.603 75.5285 225.603 75.1578C225.603 74.787 226.878 74.4864 228.452 74.4864Z" fill="#563BA2"/>
<path d="M240.746 77.646C240.746 76.1929 241.045 75.015 241.414 75.015C241.784 75.015 242.083 76.1929 242.083 77.646C242.083 79.0991 241.784 80.277 241.414 80.277C241.045 80.277 240.746 79.0991 240.746 77.646Z" fill="#563BA2"/>
<path d="M161.229 62.7346C162.803 62.7346 164.079 63.0352 164.079 63.406C164.079 63.7768 162.803 64.0773 161.229 64.0773C159.655 64.0773 158.379 63.7768 158.379 63.406C158.379 63.0352 159.655 62.7346 161.229 62.7346Z" fill="#563BA2"/>
<path d="M148.574 85.1072C147.017 85.4314 145.806 85.9413 145.869 86.2462C145.931 86.551 147.245 86.5354 148.802 86.2112C150.358 85.8871 151.57 85.3771 151.507 85.0723C151.444 84.7674 150.13 84.7831 148.574 85.1072Z" fill="#563BA2"/>
<path d="M148.727 93.0819C147.17 92.698 145.968 92.1417 146.042 91.8393C146.116 91.537 147.438 91.603 148.995 91.9869C150.551 92.3708 151.754 92.9271 151.68 93.2295C151.606 93.5318 150.284 93.4657 148.727 93.0819Z" fill="#563BA2"/>
<path d="M42.5582 47.6987C42.5582 46.1484 42.8576 44.8916 43.2269 44.8916C43.5961 44.8916 43.8955 46.1484 43.8955 47.6987C43.8955 49.249 43.5961 50.5057 43.2269 50.5057C42.8576 50.5057 42.5582 49.249 42.5582 47.6987Z" fill="#563BA2"/>
<path d="M149.31 65.2239C149.31 63.8805 149.609 62.7915 149.978 62.7915C150.348 62.7915 150.647 63.8805 150.647 65.2239C150.647 66.5673 150.348 67.6564 149.978 67.6564C149.609 67.6564 149.31 66.5673 149.31 65.2239Z" fill="#563BA2"/>
<path d="M125.204 47.4006C126.696 47.9038 127.81 48.5967 127.693 48.9482C127.575 49.2996 126.27 49.1766 124.779 48.6734C123.287 48.1702 122.172 47.4773 122.29 47.1258C122.408 46.7743 123.712 46.8974 125.204 47.4006Z" fill="#563BA2"/>
<path d="M139.013 53.2812C139.013 54.5288 138.713 55.5401 138.344 55.5401C137.975 55.5401 137.675 54.5288 137.675 53.2812C137.675 52.0336 137.975 51.0222 138.344 51.0222C138.713 51.0222 139.013 52.0336 139.013 53.2812Z" fill="#563BA2"/>
<path d="M104.882 39.1005C106.456 39.1005 107.732 39.4011 107.732 39.7719C107.732 40.1427 106.456 40.4432 104.882 40.4432C103.309 40.4432 102.033 40.1427 102.033 39.7719C102.033 39.4011 103.309 39.1005 104.882 39.1005Z" fill="#563BA2"/>
<path d="M258.385 87.5231L258.431 85.9304C258.496 83.6742 258.989 81.8289 259.911 80.3948C260.877 78.9619 262.386 77.7884 264.437 76.8744L265.573 76.3763C267.579 75.5052 269.125 74.5542 270.212 73.5234C271.298 72.4925 271.867 71.0923 271.918 69.3227C271.955 68.0397 271.656 66.9461 271.022 66.042C270.433 65.0949 269.574 64.3613 268.445 63.8412C267.316 63.3211 265.981 63.0385 264.442 62.9934C262.859 62.9471 261.422 63.1707 260.131 63.6642C258.884 64.159 257.872 64.9264 257.094 65.9663C256.359 67.0074 255.969 68.3243 255.923 69.917L255.881 71.3769L247.305 71.1258L247.343 69.7986C247.432 66.746 248.255 64.1356 249.815 61.9674C251.374 59.7991 253.445 58.1772 256.029 57.1017C258.615 55.9819 261.491 55.4683 264.657 55.561C267.78 55.6525 270.534 56.3087 272.919 57.5298C275.349 58.7522 277.238 60.4015 278.586 62.4777C279.934 64.554 280.57 66.9194 280.493 69.5738C280.417 72.2282 279.87 74.4039 278.852 76.101C277.836 77.7538 276.565 79.0892 275.039 80.1071C273.558 81.0822 272.037 81.9232 270.476 82.6302L269.34 83.1283C268.538 83.459 267.975 83.8853 267.652 84.4072C267.33 84.8848 267.155 85.6103 267.127 86.5836L267.092 87.778L258.385 87.5231ZM262.534 103.85C260.775 103.799 259.296 103.18 258.098 101.994C256.945 100.764 256.396 99.2206 256.449 97.3625C256.503 95.5044 257.14 94.0176 258.361 92.9021C259.627 91.7437 261.14 91.1902 262.899 91.2417C264.702 91.2945 266.18 91.9356 267.333 93.1648C268.487 94.3498 269.037 95.8714 268.983 97.7295C268.929 99.5876 268.292 101.097 267.07 102.256C265.849 103.372 264.337 103.903 262.534 103.85Z" fill="#F27405"/>
<path d="M251.577 71.8211C253.945 71.8841 255.872 71.6694 255.88 71.3417C255.889 71.0139 253.976 70.6971 251.608 70.6342C249.24 70.5712 247.313 70.7858 247.304 71.1136C247.296 71.4414 249.208 71.7581 251.577 71.8211Z" fill="#F27405"/>
<path d="M262.722 88.2496C265.127 88.3135 267.083 88.0996 267.091 87.7719C267.1 87.4441 265.158 87.1265 262.753 87.0626C260.349 86.9987 258.393 87.2126 258.384 87.5403C258.376 87.8681 260.318 88.1856 262.722 88.2496Z" fill="#F27405"/>
<path d="M1.3068 26.1063C1.38637 25.6804 1.91856 25.439 2.44323 25.5908L17.3091 29.8913C17.7514 30.0193 18.0337 30.3856 17.9666 30.7447L17.6456 32.463C17.5743 32.845 17.1339 33.0865 16.6491 33.0098L1.42995 30.6003C0.919186 30.5195 0.557321 30.1181 0.632485 29.7157L1.3068 26.1063Z" fill="#F27405"/>
<path d="M10.1426 7.20699C10.4478 6.90058 11.0228 7.003 11.3705 7.42571L21.2216 19.4026C21.5147 19.759 21.5417 20.2214 21.2843 20.4797L20.0531 21.7159C19.7794 21.9907 19.2801 21.9405 18.9231 21.6023L7.71698 10.9859C7.3409 10.6296 7.26797 10.0932 7.55626 9.80373L10.1426 7.20699Z" fill="#F27405"/>
<path d="M32.6273 0.186973C33.0442 0.0748187 33.4911 0.452191 33.5817 0.992808L36.1486 16.3105C36.225 16.7663 36.0181 17.1803 35.6666 17.2748L33.9846 17.7273C33.6108 17.8279 33.2034 17.5338 33.0627 17.0616L28.6448 2.24193C28.4965 1.74458 28.7005 1.24339 29.0943 1.13745L32.6273 0.186973Z" fill="#F27405"/>
</svg>
