<svg width="156" height="155" viewBox="0 0 156 155" fill="none" xmlns="http://www.w3.org/2000/svg">
<g clip-path="url(#clip0_8_11127)">
<path d="M77.8848 154.004C120.2 154.004 154.504 119.7 154.504 77.3843C154.504 35.0687 120.2 0.765137 77.8848 0.765137C35.5692 0.765137 1.26562 35.0687 1.26562 77.3843C1.26562 119.7 35.5692 154.004 77.8848 154.004Z" fill="white"/>
<path d="M77.884 154.768C35.2144 154.768 0.5 120.054 0.5 77.384C0.5 34.7144 35.2144 0 77.884 0C120.554 0 155.268 34.7144 155.268 77.384C155.268 120.054 120.554 154.768 77.884 154.768ZM77.884 1.52961C36.0578 1.52961 2.02961 35.5578 2.02961 77.384C2.02961 119.21 36.0578 153.238 77.884 153.238C119.71 153.238 153.738 119.21 153.738 77.384C153.738 35.5578 119.71 1.52961 77.884 1.52961Z" fill="#563BA2"/>
<path d="M67.4307 117.261C66.1076 117.261 64.8027 116.953 63.6193 116.361C62.436 115.769 61.4067 114.91 60.6131 113.851L39.7102 85.98C39.0387 85.0846 38.5502 84.0657 38.2724 82.9815C37.9947 81.8973 37.9332 80.769 38.0916 79.661C38.2499 78.5531 38.6249 77.4872 39.1951 76.5241C39.7654 75.5611 40.5198 74.7198 41.4151 74.0483C42.3105 73.3768 43.3294 72.8883 44.4136 72.6105C45.4978 72.3328 46.6261 72.2713 47.7341 72.4297C48.842 72.588 49.9079 72.963 50.871 73.5332C51.834 74.1035 52.6753 74.8579 53.3468 75.7532L67.0222 93.9857L102.146 41.3012C103.4 39.4219 105.35 38.1177 107.565 37.6753C109.781 37.2328 112.082 37.6884 113.962 38.9417C115.842 40.1951 117.147 42.1437 117.591 44.3592C118.035 46.5747 117.581 48.8758 116.329 50.7566L74.5229 113.465C73.7667 114.599 72.7495 115.536 71.5568 116.196C70.3641 116.855 69.0305 117.22 67.6679 117.258C67.5888 117.259 67.5098 117.261 67.4307 117.261Z" fill="#563BA2"/>
</g>
<defs>
<clipPath id="clip0_8_11127">
<rect width="155" height="155" fill="white" transform="translate(0.5)"/>
</clipPath>
</defs>
</svg>
