<svg width="8" height="6" viewBox="0 0 8 6" fill="none" xmlns="http://www.w3.org/2000/svg">
<path d="M7.045 0.925962L7.04012 0.920064L7.0348 0.914557C6.88835 0.7629 6.65159 0.762467 6.50462 0.913257L3.04069 4.39236L1.37021 2.71022C1.22326 2.55931 0.986404 2.55971 0.839921 2.7114C0.696849 2.85957 0.696849 3.09346 0.839921 3.24162L0.839907 3.24164L0.841881 3.24363L2.60534 5.01939C2.72265 5.14023 2.88209 5.20049 3.03082 5.20049C3.19185 5.20049 3.34076 5.13842 3.45621 5.01949L7.01013 1.45001C7.16784 1.30289 7.1663 1.07252 7.045 0.925962ZM3.13571 4.48805L3.1338 4.48612L3.1357 4.48806L3.13571 4.48805Z" fill="#563BA2" stroke="#563BA2" stroke-width="0.4"/>
</svg>
