<svg width="25" height="24" viewBox="0 0 25 24" fill="none" xmlns="http://www.w3.org/2000/svg">
<path d="M15.1131 9.47001L9.95005 14.53C9.28681 13.88 8.87866 12.99 8.87866 12C8.87866 10.02 10.5112 8.42001 12.5316 8.42001C13.5417 8.42001 14.4499 8.82001 15.1131 9.47001Z" stroke="#979797" stroke-width="1.5" stroke-linecap="round" stroke-linejoin="round"/>
<path d="M18.4699 5.77001C16.6843 4.45001 14.6436 3.73001 12.5314 3.73001C8.92951 3.73001 5.57251 5.81001 3.23587 9.41001C2.31754 10.82 2.31754 13.19 3.23587 14.6C4.04196 15.84 4.98069 16.91 6.00106 17.77" stroke="#979797" stroke-width="1.5" stroke-linecap="round" stroke-linejoin="round"/>
<path d="M8.87866 19.53C10.0419 20.01 11.2765 20.27 12.5316 20.27C16.1335 20.27 19.4905 18.19 21.8271 14.59C22.7454 13.18 22.7454 10.81 21.8271 9.39999C21.4904 8.87999 21.1231 8.38999 20.7455 7.92999" stroke="#979797" stroke-width="1.5" stroke-linecap="round" stroke-linejoin="round"/>
<path d="M16.113 12.7C15.8477 14.11 14.6743 15.26 13.2356 15.52" stroke="#979797" stroke-width="1.5" stroke-linecap="round" stroke-linejoin="round"/>
<path d="M9.95002 14.53L2.32788 22" stroke="#979797" stroke-width="1.5" stroke-linecap="round" stroke-linejoin="round"/>
<path d="M22.7352 2L15.113 9.47" stroke="#979797" stroke-width="1.5" stroke-linecap="round" stroke-linejoin="round"/>
</svg>
