<svg width="21" height="21" viewBox="0 0 21 21" fill="none" xmlns="http://www.w3.org/2000/svg">
<g opacity="0.8">
<path fill-rule="evenodd" clip-rule="evenodd" d="M3.83203 5.10417C3.3756 5.10417 2.9987 5.48107 2.9987 5.9375V15.9375C2.9987 16.3939 3.3756 16.7708 3.83203 16.7708H17.1654C17.6218 16.7708 17.9987 16.3939 17.9987 15.9375V5.9375C17.9987 5.48107 17.6218 5.10417 17.1654 5.10417H3.83203ZM1.33203 5.9375C1.33203 4.5606 2.45513 3.4375 3.83203 3.4375H17.1654C18.5423 3.4375 19.6654 4.5606 19.6654 5.9375V15.9375C19.6654 17.3144 18.5423 18.4375 17.1654 18.4375H3.83203C2.45513 18.4375 1.33203 17.3144 1.33203 15.9375V5.9375Z" fill="#4D4A4F"/>
<path fill-rule="evenodd" clip-rule="evenodd" d="M1.48274 5.45904C1.74667 5.08199 2.26628 4.9903 2.64332 5.25423L10.4988 10.753L18.3542 5.25423C18.7313 4.9903 19.2509 5.08199 19.5148 5.45904C19.7787 5.83608 19.687 6.35568 19.31 6.61961L10.9767 12.4529C10.6897 12.6538 10.3078 12.6538 10.0209 12.4529L1.68755 6.61961C1.31051 6.35568 1.21881 5.83608 1.48274 5.45904Z" fill="#4D4A4F"/>
</g>
</svg>
