<svg width="604" height="660" viewBox="0 0 604 660" fill="none" xmlns="http://www.w3.org/2000/svg">
<g clip-path="url(#clip0_102_119)">
<path d="M61.8125 493.895C117.897 550.269 88.6277 633.062 156.05 646.678C222.576 660.112 247.934 565.994 404.055 482.563C526.753 418.825 635.493 285.441 589.292 158.096C570.002 104.924 507.516 84.1798 456.133 82.7768C292.377 78.3054 324.57 184.245 204.152 223.669C73.7281 266.369 -75.2929 356.083 61.8125 493.895Z" fill="#563BA2"/>
<path d="M367.09 605.264C316.352 625.651 282.116 579.297 348.198 529.435C399.59 490.658 445.476 492.666 433.48 533.697C425.46 561.126 401.959 591.252 367.091 605.264L367.09 605.264Z" fill="#563BA2"/>
<path d="M189.11 207.558C194.551 203.198 196.475 196.581 193.408 192.78C190.34 188.978 183.441 189.431 178 193.791C172.558 198.151 170.634 204.767 173.702 208.569C176.77 212.37 183.668 211.918 189.11 207.558Z" fill="#7054D7"/>
</g>
<g clip-path="url(#clip1_102_119)">
<path d="M212.734 510.769C211.033 510.767 209.341 510.527 207.708 510.055C205.432 509.407 203.307 508.316 201.457 506.844C199.607 505.372 198.069 503.549 196.931 501.481L56.0035 247.068L46.2607 229.482C43.9581 225.313 43.4094 220.404 44.7348 215.832C46.0602 211.26 49.1517 207.398 53.3312 205.094L395.846 16.8206C400.032 14.5269 404.961 13.9805 409.55 15.3014C414.14 16.6223 418.017 19.7026 420.33 23.8667L430.123 41.5484L571.001 295.866C573.309 300.034 573.861 304.946 572.534 309.52C571.208 314.093 568.112 317.955 563.927 320.255L221.413 508.528C218.757 509.995 215.771 510.766 212.734 510.769ZM404.524 17.1207C401.918 17.1201 399.354 17.7793 397.074 19.0364L54.5582 207.309C50.9679 209.289 48.3122 212.606 47.1736 216.534C46.0349 220.461 46.5063 224.678 48.4843 228.26L58.2279 245.845L199.155 500.259C200.137 502.032 201.46 503.595 203.048 504.859C204.636 506.123 206.459 507.063 208.412 507.625C210.365 508.187 212.41 508.36 214.43 508.135C216.45 507.91 218.406 507.29 220.186 506.312L562.699 318.039C566.293 316.063 568.953 312.746 570.092 308.817C571.232 304.889 570.758 300.67 568.775 297.089L427.899 42.7709L418.105 25.0893C416.764 22.6723 414.797 20.658 412.408 19.2564C410.019 17.8549 407.296 17.1173 404.524 17.1207Z" fill="#F59037"/>
<path d="M429.777 42.1594L57.8822 246.456L48.1397 228.871C45.9938 224.996 45.4806 220.432 46.7131 216.18C47.9456 211.929 50.8227 208.339 54.7118 206.201L397.227 17.9284C399.153 16.8698 401.269 16.1995 403.455 15.9557C405.641 15.712 407.854 15.8995 409.967 16.5077C412.08 17.1159 414.053 18.1327 415.771 19.5002C417.49 20.8677 418.921 22.5591 419.984 24.4777L429.777 42.1594Z" fill="#F59037"/>
<path d="M403.599 39.8369C406.464 39.8369 408.787 37.5232 408.787 34.6693C408.787 31.8153 406.464 29.5017 403.599 29.5017C400.734 29.5017 398.412 31.8153 398.412 34.6693C398.412 37.5232 400.734 39.8369 403.599 39.8369Z" fill="white"/>
<path d="M388.152 48.3357C391.017 48.3357 393.34 46.0221 393.34 43.1681C393.34 40.3142 391.017 38.0005 388.152 38.0005C385.287 38.0005 382.965 40.3142 382.965 43.1681C382.965 46.0221 385.287 48.3357 388.152 48.3357Z" fill="white"/>
<path d="M372.705 56.8346C375.57 56.8346 377.893 54.521 377.893 51.667C377.893 48.8131 375.57 46.4995 372.705 46.4995C369.84 46.4995 367.518 48.8131 367.518 51.667C367.518 54.521 369.84 56.8346 372.705 56.8346Z" fill="white"/>
</g>
<g clip-path="url(#clip2_102_119)">
<path d="M224.262 45.5129C224.262 45.5129 210.184 62.7089 193.817 72.2298C185.049 77.3303 170.192 80.9735 147.297 82.4308C120.652 84.131 105.405 100.89 106.38 122.749C107.061 137.808 113.686 148.737 102.483 168.896C88.9164 193.33 102.629 225.002 136.776 234.596C136.776 234.596 262.866 85.1754 243.99 44.5414L224.262 45.5129Z" fill="#6145BD"/>
<path d="M422.275 143.635C427.316 133.799 418.134 139.822 412.216 146.307C411.997 137.612 411.266 128.941 410.097 120.319C406.443 94.5734 403.277 110.846 403.277 110.846C403.277 110.846 400.354 105.017 397.919 121.533C395.678 136.786 396.701 147.036 396.701 147.036C396.701 147.036 389.151 156.751 381.844 182.982L283.446 206.541L279.306 240.229C302.687 249.046 335.202 249.434 376.242 216.5C394.533 201.83 406.93 184.925 411.071 167.438C416.648 155.294 420.229 147.619 422.275 143.635Z" fill="#F4ADA2"/>
<path d="M413.482 144.975C413.068 145.388 412.654 145.825 412.265 146.263V149.299C412.265 155.322 412.265 160.665 411.071 167.515C411.071 167.49 411.096 167.466 411.096 167.442C411.729 166.082 412.338 164.673 412.922 163.434C413.531 158.382 413.507 154.132 413.507 149.299C413.458 147.914 413.458 146.481 413.482 144.975ZM406.809 139.268C407.15 139.268 407.418 139 407.418 138.66C407.418 137.81 407.15 118.574 403.813 108.762C403.472 109.855 403.277 110.851 403.277 110.851C405.664 121.222 406.2 138.466 406.2 138.66C406.2 139 406.468 139.268 406.809 139.268Z" fill="#9B3C82"/>
<path d="M289.773 235.692C289.773 235.692 286.363 237.683 279.422 239.335L283.44 206.546L289.773 235.692Z" fill="#F4ADA2"/>
<path d="M247.393 348.141C247.393 348.141 261.52 373.644 267.122 400.603C272.724 427.563 268.9 437.206 259.084 438.25C249.269 439.294 228.396 428.292 247.393 348.141ZM362.792 488.405C362.792 488.405 336.268 497.367 311.912 488.939C287.556 480.511 261.008 486.341 258.573 498.97C256.162 511.6 279.933 538.56 362.792 488.405Z" fill="#5B2448"/>
<path d="M366.475 508.619L321.88 516.876C319.956 511.533 318.031 506.724 316.156 502.449C313.258 495.892 310.457 490.548 307.802 486.346H362.384C362.384 486.346 362.53 487.075 362.822 488.411C363.504 491.86 364.965 499.316 366.475 508.619Z" fill="#F4ADA2"/>
<path d="M371.128 549.254C371.128 549.254 336.567 566.207 329.236 540.024C326.825 531.402 324.341 523.702 321.881 516.877L366.476 508.62C368.474 520.739 370.544 535.919 371.128 549.254Z" fill="#6E31A2"/>
<path d="M367.885 517.674L324.678 525.009L325.116 526.369C325.214 526.685 325.335 527.025 325.433 527.341L368.226 520.006L367.885 517.674Z" fill="white"/>
<path d="M266.645 399.634C266.645 399.634 261.335 400.533 253.054 401.626C252.153 401.747 251.227 401.869 250.253 401.99C245.406 402.597 239.78 403.229 233.716 403.763C221.44 404.856 207.411 405.56 194.819 404.929C163.376 403.302 185.735 369.42 185.735 369.42C192.676 366.942 200.738 364.489 209.628 361.429C217.348 358.757 225.678 355.648 234.398 351.616C235.786 350.985 237.198 350.305 238.611 349.625C240.754 348.556 261.774 387.49 266.645 399.634Z" fill="#F4ADA2"/>
<path d="M266.642 399.633C266.642 399.633 261.332 400.532 253.051 401.625C251.517 390.598 244.892 367.694 234.419 351.616C235.807 350.984 237.22 350.304 238.632 349.624C240.751 348.58 261.77 387.489 266.642 399.633Z" fill="#9B3C82"/>
<path d="M233.716 403.741C221.44 404.834 207.411 405.538 194.819 404.907C163.376 403.279 185.735 369.398 185.735 369.398C192.676 366.92 200.738 364.467 209.628 361.407L233.716 403.741Z" fill="#6E31A2"/>
<path d="M223.432 404.516L202.023 363.955C201.244 364.222 200.44 364.465 199.685 364.732L220.777 404.686C221.654 404.613 222.531 404.564 223.432 404.516Z" fill="white"/>
<path d="M362.801 488.411C343.608 498.806 329.019 501.235 316.135 502.449C313.236 495.892 310.436 490.548 307.781 486.346H352.717C358.928 487.439 362.801 488.411 362.801 488.411Z" fill="#9B3C82"/>
<path d="M188.212 251.234C178.543 277.903 199.659 312.44 219.387 334.785C239.116 357.13 264.933 382.147 266.638 411.05C268.343 439.953 261.523 482.457 258.6 498.973C264.202 483.671 288.071 483.671 313.401 489.258C338.731 494.844 362.795 488.408 362.795 488.408C362.795 488.408 348.23 420.522 339.949 391.619C339.949 391.619 410.581 337.7 385.494 303.454C360.408 269.207 314.132 246.619 289.776 235.69C265.42 224.76 197.711 225.003 188.212 251.234Z" fill="#F27405"/>
<path d="M314.113 318.366C313.869 318.439 313.723 318.488 313.699 318.488C313.65 318.512 313.577 318.512 313.504 318.512C313.163 318.512 312.895 318.245 312.895 317.905C312.895 317.637 313.066 317.395 313.333 317.322C313.358 317.322 313.455 317.297 313.626 317.225C304.833 297.163 292.85 272.583 279.795 253.468C279.601 253.201 279.235 253.128 278.943 253.323C278.675 253.517 278.602 253.881 278.797 254.173C294.141 276.663 308.024 306.805 316.962 328.106C326.266 350.281 335.181 374.933 339.954 391.619C340.028 391.57 340.393 391.279 340.977 390.818C335.205 370.756 325.122 344.5 318.058 327.644C316.865 324.705 315.525 321.596 314.113 318.366ZM262.235 360.797C262.186 360.457 261.869 360.239 261.528 360.287C261.188 360.336 260.968 360.652 261.017 360.992C263.112 374.253 264.159 388.364 264.743 399.804C265.45 402.403 265.986 405.05 266.302 407.722C265.864 395.359 264.865 377.41 262.235 360.797Z" fill="#FCB6B1"/>
<path d="M348.186 313.17C333.913 311.373 316.085 316.498 313.625 317.226C313.454 317.275 313.357 317.299 313.332 317.324C313.089 317.396 312.894 317.639 312.894 317.906C312.894 318.247 313.162 318.514 313.503 318.514C313.576 318.514 313.625 318.514 313.698 318.489C313.722 318.489 313.844 318.441 314.112 318.368C316.961 317.518 334.205 312.636 348.015 314.385C348.356 314.433 348.648 314.19 348.697 313.875C348.746 313.535 348.527 313.219 348.186 313.17Z" fill="#FCB6B1"/>
<path d="M283.442 206.541L289.774 235.687C289.774 235.687 286.364 237.678 279.423 239.33C271.069 241.321 257.551 242.827 238.627 239.816C212.566 235.687 188.21 251.231 188.21 251.231L196.004 175.209L224.257 99.1874C230.346 103.316 242.767 114.489 256.163 101.373C254.215 96.03 255.262 93.6255 255.262 93.6255C255.262 93.6255 270.07 82.1858 279.813 107.567C289.506 132.851 308.163 175.379 329.012 195.635L283.442 206.541Z" fill="#563BA2"/>
<path d="M294.482 49.6951C293.995 54.8442 293.143 71.2144 285.032 74.4447C281.72 75.7806 272.391 72.8417 268.007 70.9472H267.812C266.278 70.9715 262.162 72.0402 259.142 77.1164C256.511 81.5126 254.709 88.9447 256.195 101.38C256.195 101.38 244.504 116.925 224.288 99.1943C224.288 99.1943 223.314 91.1792 218.199 87.536C218.199 87.536 236.223 73.9347 240.607 52.0754C241.094 51.3467 246.257 41.0243 246.038 41.0243C244.918 41 243.919 40.9757 243.042 40.9271L242.677 40.9028C242.58 40.9028 242.507 40.9028 242.409 40.8786C242.263 40.8786 242.093 40.8543 241.946 40.8543C241.605 40.83 241.289 40.83 240.997 40.8057C240.875 40.8057 240.753 40.7814 240.656 40.7814C239.487 40.7085 238.561 40.6357 237.757 40.5628C237.635 40.5628 237.538 40.5385 237.416 40.5385C237.294 40.5385 237.197 40.5142 237.1 40.5142C237.002 40.5142 236.905 40.4899 236.807 40.4899C236.71 40.4899 236.613 40.4657 236.515 40.4657L258.435 0.365997L259.166 0.293132H259.215C262.99 -0.022613 266.789 0.31742 270.443 1.28894C278.651 3.52345 285.056 9.42546 288.564 17.0762C290.025 20.258 291.024 23.6097 291.803 27.0343C292.046 28.0787 292.217 29.1231 292.363 30.1675V30.1918C292.558 31.6005 292.704 33.0335 292.875 34.4422C292.996 35.4623 293.118 36.4581 293.264 37.4782C293.459 38.7898 293.678 40.3928 294.263 41.6315C294.847 42.8459 295.919 43.6717 296.991 44.4246C299.305 45.9548 296.528 48.8693 294.482 49.6951Z" fill="#F4ADA2"/>
<path d="M292.871 34.4162C272.12 42.1641 252.976 41.0712 252.976 41.0712L280.474 33.4204L291.58 30.3358L292.359 30.1172V30.1415C292.554 31.5988 292.7 33.0075 292.871 34.4162Z" fill="#9B3C82"/>
<path opacity="0.52" d="M268.103 58.2166C271.842 58.2166 274.874 55.1935 274.874 51.4645C274.874 47.7354 271.842 44.7124 268.103 44.7124C264.363 44.7124 261.332 47.7354 261.332 51.4645C261.332 55.1935 264.363 58.2166 268.103 58.2166Z" fill="#E57281"/>
<path d="M268.005 70.9428H267.81C266.275 70.9671 262.159 72.0358 259.139 77.112C253.732 71.55 253.05 64.7008 254.974 63.7292C256.436 63.0006 258.652 64.8951 260.089 65.9637C262.987 68.1011 265.179 69.5584 268.005 70.9428ZM278.283 35.0693C274.776 36.3565 272.973 39.4897 273.801 41.0927C274.629 42.6957 278.112 42.7686 281.327 40.8741C284.615 38.9068 286.637 36.2594 285.809 34.8507C284.932 33.3934 281.766 33.8063 278.283 35.0693Z" fill="#5B2448"/>
<path d="M287.659 60.3088C287.197 60.5274 286.71 60.6731 286.198 60.6731C285.711 60.6974 285.224 60.6245 284.737 60.5031C283.763 60.2359 282.91 59.7259 282.228 58.9972C281.887 58.6329 281.619 58.1957 281.4 57.7585C281.205 57.2971 281.059 56.8113 280.986 56.3255C280.84 55.3297 281.083 54.3339 281.644 53.4838C281.814 53.241 282.155 53.1681 282.399 53.3381C282.593 53.4838 282.666 53.7024 282.618 53.9453V53.9696C282.326 54.9897 282.423 56.0827 282.91 57.0299C283.056 57.3456 283.251 57.6128 283.495 57.88C283.982 58.39 284.566 58.7786 285.224 59.0458C285.881 59.313 286.588 59.4101 287.294 59.313H287.318C287.611 59.2644 287.903 59.4587 287.952 59.7502C287.976 59.9688 287.854 60.2116 287.659 60.3088Z" fill="#9B3C82"/>
<path d="M281.013 43.3757C282.425 42.6228 285.811 40.874 288.66 38.2023C289.05 37.838 289.683 37.838 290.049 38.2266C291.023 39.2467 292.29 41.1898 290.122 42.7685C287.467 44.7116 282.377 45.1973 280.94 44.2015C280.72 44.0315 280.672 43.7157 280.818 43.4972C280.891 43.4729 280.964 43.4243 281.013 43.3757Z" fill="#5B2448"/>
<path d="M239.724 45.6583C239.48 45.7069 239.212 45.7554 238.871 45.804C230.566 47.0184 194.446 46.2655 192.863 35.8702C191.621 27.5637 216.074 23.4833 227.448 22.0503C227.887 22.0017 228.301 21.9531 228.715 21.9045C231.199 21.6131 232.855 21.4673 233.099 21.4431H233.123L239.724 45.6583Z" fill="#F27405"/>
<path d="M239.727 45.6583C239.484 45.7069 239.216 45.7554 238.875 45.804C235.489 44.1281 225.942 37.036 227.476 22.0503C227.915 22.0017 228.329 21.9531 228.743 21.9045C231.227 21.6131 232.883 21.4673 233.127 21.4431H233.151C233.151 21.4431 233.516 37.8132 239.727 45.6583Z" fill="#5B2448"/>
<path d="M292.363 30.1646C291.315 30.7232 289.83 31.4518 288.563 32.0105C288.563 32.0105 288.539 32.0348 288.514 32.0348C286.444 32.9334 283.96 33.9049 281.232 34.8522C281.013 34.925 280.794 34.9979 280.599 35.0708H280.574C271.611 38.1554 260.213 41.0699 252.955 41.0942C250.519 41.0942 248.425 41.0699 246.647 41.0456C246.427 41.0456 246.208 41.0456 246.013 41.0214C244.893 40.9971 243.894 40.9728 243.018 40.9242C242.896 40.9242 242.774 40.9242 242.652 40.8999L242.384 40.8756C242.238 40.8756 242.068 40.8513 241.922 40.8513C241.581 40.827 241.264 40.8271 240.972 40.8028C240.85 40.8028 240.728 40.7785 240.631 40.7785C239.462 40.7056 238.536 40.6327 237.732 40.5599C237.611 40.5599 237.513 40.5356 237.391 40.5356C237.27 40.5356 237.172 40.5113 237.075 40.5113C236.977 40.5113 236.442 40.4142 236.198 40.3899C226.456 23.8982 236.661 2.37898 258.435 0.363071C258.678 0.338783 258.922 0.314495 259.166 0.314495H259.214C262.989 -0.00125073 266.789 0.338783 270.442 1.31031C278.65 3.54481 285.056 9.44682 288.563 17.0976C288.807 17.6319 289.05 18.1663 289.269 18.7249C290.341 21.4209 291.194 24.214 291.802 27.0557C292.022 28.0515 292.216 29.1202 292.363 30.1646Z" fill="#F27405"/>
<path d="M252.974 41.0952C252.974 41.0952 247.323 34.8774 240.139 36.8205C233.368 38.6421 233.538 48.8188 244.815 55.3523C246.544 56.3481 249.686 57.5625 252.219 57.9511L252.974 41.0952Z" fill="#F4ADA2"/>
<path d="M248.711 57.2651C249.028 57.2651 249.296 57.0222 249.32 56.7065C249.344 56.3664 249.101 56.075 248.76 56.0507C248.736 56.0507 247.177 55.9292 244.985 54.982C243.767 54.4477 242.208 53.6219 240.528 52.2617C240.43 52.6989 240.333 53.1604 240.235 53.5976C244.619 56.9493 248.468 57.2651 248.662 57.2651H248.711ZM251.975 51.1931C251.731 51.1931 251.512 51.0473 251.415 50.8287C248.2 43.688 241.989 43.8581 241.916 43.8581C241.575 43.8581 241.307 43.6152 241.283 43.2751C241.258 42.9351 241.526 42.6679 241.867 42.6436C241.94 42.6436 248.979 42.4493 252.535 50.343C252.681 50.6587 252.535 50.9988 252.218 51.1445C252.17 51.1688 252.072 51.1931 251.975 51.1931Z" fill="#9B3C82"/>
<path d="M292.36 30.1653C291.313 30.724 289.827 31.4526 288.561 32.0112C288.561 32.0112 288.536 32.0355 288.512 32.0355C286.442 32.9342 283.957 33.9057 281.23 34.8529C281.01 34.9258 280.791 34.9987 280.596 35.0715C279.305 32.6184 278.648 27.9065 280.182 24.7248C281.717 21.5431 284.761 19.3571 289.243 18.6771C290.314 21.373 291.167 24.1662 291.776 27.0079C292.019 28.0523 292.214 29.1209 292.36 30.1653Z" fill="#5B2448"/>
<path d="M191.015 470.048C186.168 469.32 178.034 464.122 170.727 450.909L135.143 386.594C158.257 376.588 177.011 372.702 188.507 368.281C190.82 375.713 186.266 378.774 188.044 386.181C190.114 394.755 193.134 395.192 197.543 416.007C197.616 416.347 197.713 416.663 197.786 417.003C197.811 417.1 197.835 417.173 197.859 417.27C199.223 422.905 200.027 428.637 200.27 434.418C201.123 456.714 192.038 468.761 191.088 469.927C191.064 469.951 191.04 469.975 191.04 470C191.04 470.024 191.015 470.048 191.015 470.048Z" fill="white"/>
<path d="M191.015 470.65H190.918C185.657 469.872 177.449 464.335 170.191 451.195L134.607 386.88C134.437 386.589 134.559 386.224 134.851 386.054C134.875 386.054 134.899 386.03 134.924 386.03C148.514 380.492 161.569 376.339 174.21 372.283C178.935 370.777 183.392 369.344 187.898 367.838C188.215 367.741 188.556 367.911 188.677 368.227C188.775 368.543 188.604 368.883 188.288 369.004C183.782 370.51 179.3 371.943 174.575 373.449C162.154 377.408 149.343 381.512 136.02 386.904L171.263 450.612C178.156 463.072 185.779 468.464 190.772 469.387C192.331 467.347 200.953 455.057 200.149 433.926C199.905 428.194 199.102 422.486 197.738 416.9L197.665 416.633C197.64 416.511 197.616 416.414 197.592 416.293C197.543 416.074 197.47 415.856 197.421 415.613C196.496 411.192 194.303 403.979 193.11 401.307C192.964 400.991 193.11 400.651 193.427 400.506C193.743 400.36 194.084 400.506 194.23 400.821C195.448 403.542 197.665 410.901 198.614 415.37C198.663 415.589 198.712 415.783 198.761 416.001C198.785 416.123 198.809 416.244 198.858 416.341L198.931 416.609C200.295 422.268 201.123 428.048 201.367 433.877C202.219 456.077 192.818 468.779 191.624 470.31C191.624 470.334 191.6 470.334 191.6 470.358C191.576 470.383 191.551 470.407 191.551 470.431L191.527 470.455C191.381 470.553 191.21 470.625 191.015 470.65Z" fill="#5B2448"/>
<path d="M183.904 394.025C183.709 394.025 183.538 393.928 183.416 393.782C179.3 388.196 177.254 387.297 173.138 385.5C172.042 385.014 170.8 384.479 169.363 383.775C162.422 380.399 161.253 377.509 161.204 377.387C161.082 377.072 161.253 376.732 161.569 376.61C161.886 376.489 162.227 376.659 162.349 376.95C162.373 376.999 163.518 379.598 169.899 382.682C171.336 383.362 172.554 383.897 173.625 384.382C177.79 386.18 180.08 387.2 184.391 393.053C184.586 393.32 184.537 393.709 184.269 393.903C184.172 393.976 184.05 394.025 183.904 394.025ZM193.549 466.743C193.451 466.743 193.354 466.719 193.281 466.67C184.732 462.541 178.229 455.668 173.918 446.268C171.117 440.148 169.266 432.934 168.389 424.846C167.853 419.892 166.051 417.608 164.297 415.423C162.811 413.552 161.253 411.609 160.571 408.16C160.035 405.44 160.4 403.254 160.741 401.141C161.204 398.348 161.642 395.701 160.132 391.79C156.795 383.192 149.489 381.686 149.416 381.662C149.075 381.589 148.88 381.273 148.929 380.958C149.002 380.618 149.318 380.423 149.635 380.472C149.951 380.545 157.648 382.099 161.253 391.353C162.884 395.555 162.397 398.494 161.935 401.335C161.594 403.424 161.253 405.416 161.74 407.917C162.349 411.075 163.737 412.824 165.223 414.645C167.074 416.977 169.022 419.381 169.582 424.701C170.435 432.667 172.261 439.759 175.014 445.758C179.203 454.891 185.535 461.546 193.816 465.577C194.109 465.723 194.255 466.088 194.109 466.379C194.011 466.622 193.792 466.743 193.549 466.743Z" fill="#5B2448"/>
<path d="M152.85 403.934C151.827 403.91 150.829 403.594 149.952 403.036C148.344 402.088 146.859 400.485 145.787 398.518C144.715 396.551 144.131 394.438 144.18 392.592C144.228 390.624 144.983 389.143 146.274 388.414C147.565 387.686 149.221 387.856 150.926 388.876C152.534 389.823 154.019 391.426 155.091 393.393C156.163 395.361 156.747 397.474 156.699 399.32C156.65 401.287 155.895 402.769 154.604 403.497C154.068 403.789 153.459 403.934 152.85 403.934ZM148.003 389.191C147.589 389.191 147.2 389.289 146.834 389.483C145.933 389.969 145.422 391.086 145.373 392.616C145.324 394.268 145.86 396.138 146.834 397.935C147.809 399.733 149.148 401.166 150.561 401.991C151.876 402.769 153.094 402.939 153.995 402.429C154.896 401.943 155.408 400.825 155.456 399.295C155.505 397.644 154.969 395.774 153.995 393.976C153.021 392.179 151.681 390.746 150.269 389.92C149.587 389.459 148.807 389.216 148.003 389.191Z" fill="#5B2448"/>
<path d="M199.004 421.324C198.541 421.324 198.078 421.154 197.761 420.839C194.132 417.438 189.968 415.155 185.389 414.038C181.954 413.212 179.543 413.406 179.519 413.406C178.52 413.504 177.619 412.751 177.546 411.755C177.449 410.759 178.204 409.86 179.202 409.788C179.665 409.739 190.382 408.865 200.294 418.191C201.025 418.871 201.074 420.037 200.368 420.766C199.978 421.106 199.515 421.324 199.004 421.324ZM200.221 431.72C199.71 431.72 199.198 431.501 198.857 431.112C191.185 422.612 180.81 422.879 180.712 422.879H180.639C179.641 422.879 178.813 422.053 178.813 421.057C178.813 420.086 179.592 419.284 180.566 419.236C181.053 419.211 192.768 418.944 201.561 428.684C202.243 429.437 202.17 430.578 201.415 431.258C201.098 431.55 200.66 431.72 200.221 431.72ZM200.416 441.556C199.88 441.556 199.393 441.338 199.052 440.925C192.306 433.274 183.343 433.226 183.27 433.226C182.271 433.226 181.443 432.424 181.419 431.428C181.419 430.432 182.222 429.607 183.221 429.582C183.659 429.582 193.913 429.558 201.805 438.52C202.462 439.273 202.389 440.439 201.634 441.095C201.269 441.386 200.855 441.556 200.416 441.556Z" fill="#F59037"/>
<path d="M428.41 584.323C425.438 588.209 416.938 592.799 401.789 592.799H328.161C330.329 580.194 333.178 559.184 328.892 538.515C336.539 540.07 337.026 545.535 344.382 547.55C352.882 549.882 363.745 546.312 384.155 552.505C384.496 552.602 384.813 552.675 385.154 552.772C385.251 552.797 385.324 552.821 385.422 552.845C391.023 554.375 396.455 556.44 401.643 559.014C421.639 569.045 427.801 582.792 428.385 584.177C428.41 584.201 428.41 584.225 428.41 584.25V584.323Z" fill="white"/>
<path d="M401.808 593.378H328.156C327.815 593.378 327.547 593.111 327.547 592.771V592.698C327.84 590.124 328.156 587.646 328.473 585.242C330.47 569.406 332.029 556.873 328.327 538.997C328.254 538.657 328.473 538.341 328.79 538.268C329.131 538.196 329.447 538.414 329.52 538.73C333.271 556.8 331.688 569.406 329.691 585.363C329.423 587.549 329.131 589.808 328.863 592.139H401.833C416.105 592.139 424.532 588.083 427.747 584.173C426.7 581.817 420.1 568.361 401.126 558.865C395.963 556.315 390.58 554.25 385.003 552.744L384.735 552.671C384.613 552.647 384.516 552.623 384.394 552.574C384.175 552.526 383.956 552.453 383.712 552.38C379.377 551.068 371.997 549.465 369.074 549.222C368.733 549.198 368.49 548.907 368.514 548.567C368.538 548.227 368.831 547.984 369.172 548.008C372.167 548.251 379.669 549.878 384.077 551.214C384.297 551.287 384.491 551.335 384.711 551.384C384.832 551.408 384.954 551.433 385.052 551.481L385.32 551.554C390.946 553.084 396.426 555.173 401.662 557.772C421.585 567.779 428.186 582.133 428.941 583.882C428.941 583.882 428.941 583.906 428.965 583.906C428.99 583.954 428.99 583.979 429.014 584.003L429.038 584.027C429.111 584.222 429.087 584.44 428.965 584.61C425.677 588.885 416.86 593.378 401.808 593.378Z" fill="#5B2448"/>
<path d="M331.503 565.616C331.259 565.616 331.138 565.616 331.113 565.591C330.772 565.567 330.529 565.276 330.553 564.936C330.577 564.596 330.87 564.353 331.211 564.377C331.259 564.377 335.619 564.693 341.537 560.539C342.828 559.641 343.9 558.815 344.826 558.086C348.43 555.317 350.403 553.787 357.637 552.864C357.978 552.816 358.27 553.059 358.319 553.374C358.367 553.714 358.124 554.006 357.807 554.054H357.783C350.89 554.929 349.112 556.313 345.556 559.034C344.606 559.762 343.535 560.588 342.219 561.511C336.91 565.276 332.769 565.616 331.503 565.616ZM403.085 587.912C401.843 587.912 400.6 587.864 399.31 587.766C392.587 587.256 385.354 585.41 377.828 582.229C373.224 580.286 370.35 580.771 367.574 581.257C365.211 581.67 362.776 582.083 359.415 580.99C356.76 580.14 355.031 578.755 353.326 577.444C351.085 575.695 348.99 574.019 344.826 573.461C335.668 572.222 330.797 577.857 330.748 577.905C330.529 578.148 330.139 578.173 329.895 577.954C329.652 577.735 329.627 577.371 329.822 577.128C330.041 576.885 335.132 570.935 344.996 572.246C349.477 572.853 351.816 574.699 354.081 576.472C355.761 577.784 357.344 579.047 359.78 579.824C362.849 580.82 365.041 580.431 367.379 580.043C370.326 579.533 373.371 579.023 378.315 581.087C385.719 584.196 392.831 586.042 399.431 586.528C409.466 587.281 418.38 584.973 425.906 579.678C426.174 579.484 426.564 579.557 426.759 579.824C426.954 580.091 426.88 580.48 426.613 580.674C419.769 585.483 411.877 587.912 403.085 587.912Z" fill="#5B2448"/>
<path d="M343.752 589.278C338.905 589.278 335.106 586.946 335.106 583.983C335.106 581.02 338.905 578.688 343.752 578.688C348.599 578.688 352.399 581.02 352.399 583.983C352.399 586.946 348.599 589.278 343.752 589.278ZM343.752 579.878C339.734 579.878 336.324 581.749 336.324 583.959C336.324 586.169 339.734 588.039 343.752 588.039C347.771 588.039 351.181 586.169 351.181 583.959C351.181 581.749 347.771 579.878 343.752 579.878Z" fill="#5B2448"/>
<path d="M371.464 568.094C370.466 568.094 369.638 567.268 369.638 566.272C369.638 566.029 369.686 565.786 369.784 565.543C369.954 565.131 374.363 555.342 387.344 551.189C388.319 550.898 389.342 551.432 389.634 552.379C389.926 553.327 389.415 554.347 388.465 554.662C377.139 558.281 373.169 566.928 373.145 567.001C372.853 567.681 372.195 568.094 371.464 568.094ZM380.403 571.543C379.404 571.543 378.576 570.717 378.576 569.721C378.576 569.43 378.649 569.162 378.771 568.895C378.99 568.458 384.397 558.111 397.184 555.124C398.158 554.881 399.157 555.488 399.401 556.46C399.644 557.431 399.035 558.427 398.061 558.67H398.037C386.955 561.244 382.084 570.45 382.035 570.547C381.718 571.154 381.109 571.543 380.403 571.543ZM390.73 574.287C389.731 574.287 388.903 573.461 388.903 572.466C388.903 572.174 388.976 571.883 389.122 571.615C389.317 571.227 394.261 562.265 405.952 559.714C406.927 559.496 407.901 560.127 408.12 561.099C408.339 562.07 407.706 563.042 406.732 563.26C396.746 565.446 392.386 573.243 392.337 573.34C392.021 573.923 391.412 574.287 390.73 574.287Z" fill="#F59037"/>
<path d="M188.457 185.657C202.827 169.869 226.379 126.564 224.26 99.191C222.068 71.0168 193.328 85.1039 159.23 116.436C144.665 129.818 125.862 139.023 120.991 142.667C132.438 140.238 148.757 151.896 161.909 166.469C167.34 172.492 176.036 182.742 188.457 185.657Z" fill="#563BA2"/>
<path d="M283.446 206.543L284.615 206.252C281.01 194.181 259.382 121.389 256.119 101.424C256.021 101.546 255.656 101.983 255.071 102.566C258.847 123.939 279.988 194.934 283.446 206.543ZM225.552 100.283C225.114 99.9428 224.7 99.5785 224.261 99.1898C224.992 108.638 222.508 122.288 217.442 136.375C213.666 146.892 206.969 161.853 195.789 177.276L195.546 179.656C207.553 163.529 214.641 147.766 218.586 136.788C223.579 122.919 226.039 109.877 225.552 100.283Z" fill="#9557E5"/>
<path d="M183.464 184.707C183.415 184.707 183.366 184.707 183.318 184.683C165.172 180.117 150.34 174.992 139.233 169.455C129.759 164.718 123.183 159.739 120.26 155.003C117.898 151.214 117.532 146.867 119.359 144.219C120.553 142.495 123.134 140.649 128.736 141.693C129.077 141.766 129.296 142.082 129.223 142.398C129.15 142.738 128.834 142.956 128.517 142.883C124.596 142.155 121.77 142.859 120.358 144.899C118.799 147.158 119.164 150.971 121.283 154.347C127.591 164.5 150.291 175.114 183.61 183.469C183.926 183.542 184.146 183.882 184.048 184.197C184 184.513 183.756 184.683 183.464 184.707Z" fill="#563BA2"/>
<path d="M327.288 166.472C326.801 171.086 322.904 173.272 322.904 173.272C322.173 179.101 318.033 180.316 318.033 180.316C318.033 180.316 317.789 186.145 306.585 185.173C295.382 184.202 292.946 176.673 292.946 176.673C292.946 176.673 286.857 176.187 279.867 172.228C277.626 170.916 274.801 171.329 273.023 173.199C257.63 189.594 219.343 257.576 167.513 253.666C123.234 250.338 123.38 190.201 132.904 158.068C133.074 157.461 133.269 156.878 133.439 156.319C134.511 152.87 135.851 149.518 137.434 146.288C145.398 150.49 153.85 157.704 161.327 165.864C161.522 166.059 162.277 166.909 162.35 167.006C166.734 171.888 173.091 179.101 181.64 183.255C182.249 183.57 182.858 183.862 183.442 184.105L183.466 184.08L183.491 184.056C188.605 179.83 193.647 175.847 198.591 172.131C233.299 146.07 263.865 132.711 290.778 134.29C306.22 135.213 332.597 153.599 342.583 168.415C352.569 183.23 327.775 166.714 327.288 166.472Z" fill="#F4ADA2"/>
<path d="M183.46 184.072C171.136 180.55 161.15 174.211 149.557 166.463C142.518 161.751 136.502 159.273 132.873 158.035C133.043 157.428 133.238 156.845 133.409 156.286C134.48 152.837 135.82 149.485 137.403 146.255C145.367 150.457 153.819 157.67 161.296 165.831C161.491 166.026 162.246 166.876 162.319 166.973C166.703 171.855 173.06 179.068 181.609 183.221C182.267 183.537 182.875 183.829 183.46 184.072ZM307.188 180.793C307.407 180.793 307.626 180.671 307.724 180.477C307.87 180.185 307.772 179.821 307.456 179.651C303.218 177.441 296.958 176.761 292.94 176.664C288.921 176.567 293.086 177.125 293.5 177.854C297.397 177.975 303.023 178.704 306.92 180.72C306.993 180.768 307.09 180.793 307.188 180.793ZM308.186 164.593C307.894 164.447 307.529 164.544 307.358 164.86C307.212 165.151 307.31 165.515 307.626 165.685C312.57 168.26 318.148 173.603 318.026 180.307C318.172 180.258 318.708 180.064 319.268 179.675C319.074 172.705 313.301 167.24 308.186 164.593ZM313.861 157.573C313.569 157.379 313.179 157.452 313.009 157.743C312.814 158.035 312.911 158.399 313.179 158.593C315.737 160.318 318.002 162.479 319.853 164.981C321.85 167.75 322.849 170.495 322.897 173.263C322.946 173.239 323.482 172.948 324.091 172.389C323.872 169.669 322.776 166.948 320.852 164.277C318.903 161.654 316.541 159.395 313.861 157.573ZM318.221 151.574C317.929 151.404 317.563 151.477 317.393 151.768C317.222 152.06 317.296 152.424 317.588 152.594C323.823 156.456 327.062 162.358 327.281 166.463C327.379 166.511 327.842 166.803 328.524 167.24C328.792 161.362 323.482 154.829 318.221 151.574Z" fill="#9B3C82"/>
<path d="M163.753 201.148C163.656 201.27 163.583 201.416 163.583 201.561C163.583 201.901 163.85 202.169 164.191 202.169C164.362 202.169 164.532 202.096 164.63 201.974C164.727 201.853 175.103 190.607 183.408 184.074C182.994 183.904 182.58 183.71 182.166 183.491C173.909 190.146 163.875 201.027 163.753 201.148Z" fill="#9B3C82"/>
</g>
<g clip-path="url(#clip3_102_119)">
<path d="M144.779 283.99L113.813 279.801C113.727 279.789 113.64 279.802 113.561 279.836C113.481 279.871 113.413 279.927 113.365 279.998C113.316 280.069 113.288 280.153 113.284 280.238C113.28 280.324 113.3 280.41 113.342 280.485L131.618 312.982C131.66 313.057 131.723 313.119 131.798 313.161C131.874 313.202 131.96 313.223 132.047 313.219C132.133 313.215 132.217 313.187 132.289 313.139C132.361 313.09 132.417 313.023 132.452 312.944L145.143 284.636C145.172 284.571 145.186 284.499 145.182 284.427C145.179 284.356 145.159 284.286 145.124 284.223C145.089 284.16 145.039 284.107 144.979 284.066C144.919 284.026 144.851 284 144.779 283.99Z" fill="#FF940C"/>
</g>
<g clip-path="url(#clip4_102_119)">
<path d="M350.689 191.462L362.951 99.0848L362.975 98.9881L363.17 98.8913L396.604 82.5197L383.735 183.724L350.689 191.462Z" fill="#66B0F0"/>
<path d="M398.258 81.8945L385.899 180.801L385.608 183.05V183.075L385.51 183.945C385.389 184.937 384.491 185.662 383.495 185.541C382.694 185.444 382.087 184.864 381.917 184.139C381.868 183.945 381.868 183.752 381.893 183.534V183.486L382.281 180.463L382.427 179.254L394.227 84.869L364.654 100.152L353.242 186.17L353.072 187.452L352.586 191.006L352.489 191.684C352.368 192.578 351.591 193.255 350.692 193.255C350.619 193.255 350.522 193.255 350.45 193.231C349.454 193.11 348.75 192.191 348.871 191.2L349.26 188.346L349.43 187.065L361.157 98.7256C361.23 98.1452 361.594 97.6132 362.128 97.3472L362.323 97.2505L395.611 80.0566C396.509 79.5972 397.602 79.9357 398.063 80.8305C398.233 81.169 398.306 81.5318 398.258 81.8945Z" fill="#E27B30"/>
<path d="M384.222 179.571C383.712 179.377 383.178 179.256 382.595 179.256H382.401C382.134 179.256 381.867 179.305 381.6 179.377L353.192 186.173L351.298 186.632L349.404 187.092L349.234 188.373L353.022 187.454L381.867 180.538L382.231 180.466C382.352 180.466 382.449 180.441 382.571 180.441C382.668 180.441 382.984 180.466 383.008 180.466C383.056 180.466 383.129 180.49 383.178 180.49C383.226 180.49 383.275 180.514 383.324 180.514C383.445 180.538 383.591 180.587 383.712 180.635C383.736 180.635 383.761 180.659 383.809 180.659C383.882 180.683 383.979 180.732 384.052 180.78C384.125 180.828 384.198 180.853 384.246 180.901C384.27 180.925 384.295 180.949 384.343 180.949C384.586 181.119 384.805 181.336 384.999 181.554L385.145 181.771L385.217 181.917C385.266 182.013 385.339 182.11 385.387 182.231C385.412 182.279 385.412 182.303 385.436 182.352C385.509 182.569 385.582 182.787 385.606 183.029L385.897 180.78C385.46 180.272 384.877 179.837 384.222 179.571ZM280.399 205.833C280.447 205.736 280.496 205.664 280.569 205.567C280.496 205.664 280.447 205.761 280.399 205.833Z" fill="white"/>
<path d="M383.323 186.438L284.161 210.185C279.767 211.177 278.893 205.252 282.316 204.405L349.257 188.372L353.045 187.453L381.89 180.537C381.89 180.537 383.954 179.933 385.144 181.819C386.503 183.971 384.804 186.075 383.323 186.438Z" fill="#7F6FE5"/>
<path d="M378.974 185.541C379.578 185.541 380.067 185.054 380.067 184.453C380.067 183.852 379.578 183.365 378.974 183.365C378.371 183.365 377.882 183.852 377.882 184.453C377.882 185.054 378.371 185.541 378.974 185.541Z" fill="#E27B30"/>
<path d="M366.713 188.2C366.179 188.2 365.742 187.764 365.742 187.232C365.742 186.773 366.057 186.386 366.494 186.289L373.779 184.596C374.313 184.475 374.823 184.79 374.944 185.322C375.065 185.854 374.75 186.362 374.216 186.483L366.931 188.175C366.859 188.2 366.786 188.2 366.713 188.2Z" fill="#E27B30"/>
</g>
<g clip-path="url(#clip5_102_119)">
<path d="M343.566 136.364C343.395 136.364 343.23 136.298 343.108 136.179C342.985 136.06 342.914 135.898 342.91 135.727L342.362 114.732C342.357 114.558 342.422 114.39 342.541 114.264C342.661 114.139 342.826 114.065 343 114.061C343.174 114.056 343.342 114.121 343.469 114.24C343.595 114.36 343.668 114.524 343.673 114.698L344.222 135.693C344.226 135.867 344.162 136.035 344.042 136.16C343.922 136.286 343.757 136.36 343.584 136.364L343.566 136.364ZM330.423 142.592C330.268 142.593 330.118 142.538 330 142.438L313.917 128.887C313.785 128.775 313.703 128.615 313.688 128.443C313.674 128.271 313.729 128.1 313.841 127.968C313.953 127.835 314.113 127.753 314.285 127.738C314.458 127.723 314.63 127.777 314.763 127.888L330.846 141.438C330.949 141.525 331.022 141.641 331.057 141.77C331.091 141.9 331.085 142.037 331.039 142.163C330.992 142.289 330.908 142.398 330.798 142.474C330.688 142.551 330.557 142.592 330.423 142.592Z" fill="#FFCF2D"/>
</g>
<defs>
<clipPath id="clip0_102_119">
<rect width="587.974" height="573.094" fill="white" transform="matrix(0.999603 0.0281793 -0.0283717 0.999597 16.26 70.3783)"/>
</clipPath>
<clipPath id="clip1_102_119">
<rect width="529.229" height="496.18" fill="white" transform="translate(44.0181 14.5865)"/>
</clipPath>
<clipPath id="clip2_102_119">
<rect width="331.825" height="593.188" fill="white" transform="translate(97.1946 0.189819)"/>
</clipPath>
<clipPath id="clip3_102_119">
<rect width="31.901" height="33.4229" fill="white" transform="translate(113.279 279.796)"/>
</clipPath>
<clipPath id="clip4_102_119">
<rect width="119.969" height="132.061" fill="white" transform="translate(278.774 79.5266)"/>
</clipPath>
<clipPath id="clip5_102_119">
<rect width="30.5377" height="28.5317" fill="white" transform="translate(313.681 114.052)"/>
</clipPath>
</defs>
</svg>
