<svg width="20" height="21" viewBox="0 0 20 21" fill="none" xmlns="http://www.w3.org/2000/svg">
<g opacity="0.8">
<path fill-rule="evenodd" clip-rule="evenodd" d="M4.1665 10.696C3.70627 10.696 3.33317 11.0691 3.33317 11.5293V17.3626C3.33317 17.8229 3.70627 18.196 4.1665 18.196H15.8332C16.2934 18.196 16.6665 17.8229 16.6665 17.3626V11.5293C16.6665 11.0691 16.2934 10.696 15.8332 10.696H4.1665ZM1.6665 11.5293C1.6665 10.1486 2.78579 9.0293 4.1665 9.0293H15.8332C17.2139 9.0293 18.3332 10.1486 18.3332 11.5293V17.3626C18.3332 18.7433 17.2139 19.8626 15.8332 19.8626H4.1665C2.78579 19.8626 1.6665 18.7433 1.6665 17.3626V11.5293Z" fill="#4D4A4F"/>
<path fill-rule="evenodd" clip-rule="evenodd" d="M10 3.19596C9.11594 3.19596 8.2681 3.54715 7.64298 4.17227C7.01786 4.7974 6.66667 5.64524 6.66667 6.5293V9.86263C6.66667 10.3229 6.29357 10.696 5.83333 10.696C5.3731 10.696 5 10.3229 5 9.86263V6.5293C5 5.20321 5.52678 3.93145 6.46447 2.99376C7.40215 2.05608 8.67392 1.5293 10 1.5293C11.3261 1.5293 12.5979 2.05608 13.5355 2.99376C14.4732 3.93145 15 5.20321 15 6.5293V9.86263C15 10.3229 14.6269 10.696 14.1667 10.696C13.7064 10.696 13.3333 10.3229 13.3333 9.86263V6.5293C13.3333 5.64524 12.9821 4.7974 12.357 4.17227C11.7319 3.54715 10.8841 3.19596 10 3.19596Z" fill="#4D4A4F"/>
</g>
</svg>
