<svg width="21" height="21" viewBox="0 0 21 21" fill="none" xmlns="http://www.w3.org/2000/svg">
<g opacity="0.8" clip-path="url(#clip0_832_1487)">
<path fill-rule="evenodd" clip-rule="evenodd" d="M4.66797 10.9069C4.20773 10.9069 3.83464 11.28 3.83464 11.7402V17.5736C3.83464 18.0338 4.20773 18.4069 4.66797 18.4069H16.3346C16.7949 18.4069 17.168 18.0338 17.168 17.5736V11.7402C17.168 11.28 16.7949 10.9069 16.3346 10.9069H4.66797ZM2.16797 11.7402C2.16797 10.3595 3.28726 9.24023 4.66797 9.24023H16.3346C17.7153 9.24023 18.8346 10.3595 18.8346 11.7402V17.5736C18.8346 18.9543 17.7153 20.0736 16.3346 20.0736H4.66797C3.28726 20.0736 2.16797 18.9543 2.16797 17.5736V11.7402Z" fill="#4D4A4F"/>
<path fill-rule="evenodd" clip-rule="evenodd" d="M10.5 3.4069C9.61594 3.4069 8.7681 3.75809 8.14298 4.38321C7.51786 5.00833 7.16667 5.85618 7.16667 6.74023V10.0736C7.16667 10.5338 6.79357 10.9069 6.33333 10.9069C5.8731 10.9069 5.5 10.5338 5.5 10.0736V6.74023C5.5 5.41415 6.02678 4.14238 6.96447 3.2047C7.90215 2.26702 9.17392 1.74023 10.5 1.74023C11.8261 1.74023 13.0979 2.26702 14.0355 3.2047C14.9732 4.14238 15.5 5.41415 15.5 6.74023V10.0736C15.5 10.5338 15.1269 10.9069 14.6667 10.9069C14.2064 10.9069 13.8333 10.5338 13.8333 10.0736V6.74023C13.8333 5.85618 13.4821 5.00833 12.857 4.38321C12.2319 3.75809 11.3841 3.4069 10.5 3.4069Z" fill="#4D4A4F"/>
</g>
<defs>
<clipPath id="clip0_832_1487">
<rect width="20" height="20" fill="white" transform="translate(0.5 0.90625)"/>
</clipPath>
</defs>
</svg>