<svg width="132" height="53" viewBox="0 0 132 53" fill="none" xmlns="http://www.w3.org/2000/svg">
<path d="M121.163 42.7808L121.185 42.0051C121.217 40.9062 121.459 40.0074 121.911 39.3089C122.384 38.611 123.123 38.0394 124.129 37.5942L124.686 37.3516C125.669 36.9273 126.426 36.4641 126.958 35.962C127.491 35.4599 127.769 34.7779 127.795 33.916C127.813 33.2911 127.666 32.7585 127.356 32.3181C127.067 31.8568 126.646 31.4995 126.093 31.2462C125.539 30.9928 124.885 30.8552 124.131 30.8333C123.355 30.8107 122.651 30.9196 122.019 31.16C121.408 31.401 120.912 31.7747 120.53 32.2812C120.17 32.7883 119.979 33.4298 119.956 34.2055L119.936 34.9166L115.733 34.7943L115.752 34.1478C115.795 32.661 116.199 31.3896 116.963 30.3335C117.727 29.2774 118.742 28.4874 120.009 27.9636C121.276 27.4182 122.685 27.168 124.237 27.2132C125.767 27.2577 127.116 27.5774 128.285 28.1721C129.476 28.7675 130.401 29.5708 131.062 30.5821C131.723 31.5934 132.035 32.7454 131.997 34.0383C131.959 35.3312 131.691 36.3909 131.193 37.2175C130.695 38.0225 130.072 38.673 129.324 39.1688C128.598 39.6437 127.853 40.0533 127.088 40.3977L126.531 40.6403C126.138 40.8014 125.863 41.009 125.704 41.2632C125.546 41.4958 125.461 41.8492 125.447 42.3232L125.43 42.905L121.163 42.7808Z" fill="#F27405"/>
<path d="M123.196 50.7333C122.334 50.7082 121.61 50.4067 121.022 49.8289C120.457 49.2302 120.188 48.4783 120.214 47.5733C120.241 46.6683 120.553 45.9441 121.151 45.4008C121.772 44.8366 122.513 44.567 123.375 44.5921C124.258 44.6178 124.983 44.93 125.548 45.5287C126.113 46.1059 126.383 46.847 126.357 47.752C126.33 48.6571 126.018 49.392 125.419 49.9569C124.821 50.5002 124.08 50.759 123.196 50.7333Z" fill="#F27405"/>
<path d="M117.827 35.1329C118.987 35.1636 119.931 35.059 119.936 34.8994C119.94 34.7397 119.003 34.5855 117.842 34.5548C116.681 34.5241 115.737 34.6287 115.733 34.7883C115.729 34.948 116.666 35.1022 117.827 35.1329Z" fill="#F27405"/>
<path d="M123.288 43.1347C124.467 43.1658 125.425 43.0616 125.429 42.902C125.434 42.7424 124.482 42.5877 123.304 42.5566C122.125 42.5254 121.167 42.6296 121.163 42.7892C121.158 42.9489 122.11 43.1035 123.288 43.1347Z" fill="#F27405"/>
<path d="M16.498 33.2925L16.4982 30.85L18.8897 30.8502L18.8905 17.9257L16.499 17.9256L16.4991 15.4832L25.531 15.4837C26.5996 15.4838 27.5324 15.6704 28.3296 16.0436C29.1267 16.3999 29.7458 16.9172 30.1867 17.5957C30.6447 18.2572 30.8736 19.0459 30.8735 19.9618L30.8735 20.2162C30.8735 21.0304 30.7208 21.7003 30.4154 22.2261C30.1101 22.7519 29.7369 23.1589 29.2959 23.4473C28.8719 23.7356 28.4648 23.9391 28.0747 24.0578L28.0746 24.4649C28.4647 24.5667 28.8803 24.7702 29.3212 25.0755C29.7792 25.3639 30.1608 25.771 30.4661 26.2968C30.7883 26.8226 30.9494 27.5096 30.9493 28.3576L30.9493 28.6121C30.9492 29.5958 30.7202 30.4354 30.2622 31.1308C29.8042 31.8262 29.1681 32.3604 28.354 32.7335C27.5568 33.1066 26.6324 33.2931 25.5808 33.293L16.498 33.2925ZM21.6629 30.7995L25.2502 30.7997C26.1661 30.7998 26.887 30.5793 27.4128 30.1384C27.9386 29.6974 28.2016 29.0868 28.2016 28.3066L28.2016 28.0776C28.2017 27.2974 27.9388 26.6868 27.413 26.2458C26.9042 25.8047 26.1834 25.5842 25.2505 25.5841L21.6632 25.5839L21.6629 30.7995ZM21.6634 23.0652L25.2507 23.0654C26.1157 23.0654 26.8111 22.8535 27.3369 22.4295C27.8628 21.9885 28.1257 21.3949 28.1258 20.6486L28.1258 20.3942C28.1258 19.6479 27.863 19.0627 27.3372 18.6386C26.8284 18.1976 26.133 17.9771 25.251 17.977L21.6637 17.9768L21.6634 23.0652Z" fill="#48358C"/>
<path d="M39.983 33.6501C38.7279 33.65 37.6085 33.3956 36.6248 32.8867C35.658 32.3608 34.8948 31.6145 34.3351 30.6476C33.7755 29.6808 33.4957 28.5359 33.4958 27.2129L33.4958 26.8313C33.4959 25.5083 33.7758 24.3719 34.3356 23.4221C34.8954 22.4554 35.6587 21.7091 36.6255 21.1834C37.6093 20.6577 38.7287 20.3948 39.9839 20.3949C41.239 20.395 42.3584 20.658 43.3422 21.1838C44.3259 21.7097 45.0976 22.456 45.6572 23.4228C46.2169 24.3727 46.4967 25.5091 46.4966 26.8321L46.4966 27.2137C46.4965 28.5367 46.2165 29.6816 45.6568 30.6483C45.097 31.6151 44.3252 32.3613 43.3414 32.8871C42.3576 33.3959 41.2382 33.6502 39.983 33.6501ZM39.9832 31.3095C41.1366 31.3095 42.0694 30.9449 42.7819 30.2156C43.5112 29.4694 43.876 28.4433 43.8761 27.1372L43.8761 26.9083C43.8762 25.6023 43.52 24.5846 42.8077 23.8552C42.0954 23.1088 41.1541 22.7356 39.9837 22.7356C38.8473 22.7355 37.9144 23.1086 37.1851 23.8548C36.4726 24.5841 36.1164 25.6018 36.1163 26.9078L36.1163 27.1368C36.1162 28.4428 36.4723 29.469 37.1847 30.2153C37.9139 30.9447 38.8468 31.3094 39.9832 31.3095Z" fill="#48358C"/>
<path d="M49.7587 33.2945L49.7595 20.7517L52.3291 20.7519L52.329 22.2275L52.7361 22.2275C52.9397 21.7017 53.262 21.3201 53.703 21.0827C54.1609 20.8283 54.7207 20.7011 55.3822 20.7012L56.8832 20.7013L56.8831 23.0674L55.2802 23.0673C54.4322 23.0672 53.7367 23.3046 53.194 23.7795C52.6512 24.2374 52.3797 24.9498 52.3797 25.9166L52.3792 33.2947L49.7587 33.2945Z" fill="#48358C"/>
<path d="M63.1423 33.6516C62.2434 33.6515 61.4377 33.4988 60.7254 33.1935C60.03 32.8881 59.4703 32.4386 59.0463 31.8449C58.6392 31.2513 58.4358 30.5304 58.4358 29.6823C58.4359 28.8173 58.6394 28.105 59.0465 27.5453C59.4706 26.9686 60.0388 26.5361 60.7512 26.2478C61.4806 25.9595 62.3032 25.8154 63.2191 25.8155L67.0354 25.8157L67.0354 25.0016C67.0355 24.2722 66.815 23.6871 66.3741 23.2461C65.9331 22.805 65.2547 22.5845 64.3388 22.5844C63.4398 22.5844 62.7529 22.7963 62.2779 23.2204C61.803 23.6444 61.4892 24.1956 61.3365 24.874L58.8941 24.0852C59.0977 23.4067 59.42 22.7961 59.861 22.2534C60.319 21.6937 60.9212 21.2443 61.6675 20.9051C62.4138 20.5659 63.3127 20.3964 64.3643 20.3964C65.9926 20.3965 67.2732 20.8122 68.206 21.6433C69.1388 22.4745 69.6052 23.6533 69.6051 25.1798L69.6047 30.3445C69.6047 30.8534 69.8422 31.1078 70.3171 31.1078L71.3856 31.1079L71.3855 33.2959L69.4265 33.2958C68.8328 33.2957 68.3494 33.1431 67.9763 32.8377C67.6032 32.5324 67.4166 32.1168 67.4167 31.591L67.4167 31.5147L67.035 31.5147C66.8993 31.7691 66.6958 32.0659 66.4244 32.4051C66.153 32.7443 65.7544 33.0411 65.2286 33.2955C64.7027 33.5329 64.0073 33.6516 63.1423 33.6516ZM63.5241 31.489C64.5757 31.4891 65.4237 31.1923 66.0683 30.5987C66.7129 29.9882 67.0352 29.1571 67.0353 28.1055L67.0353 27.8511L63.3716 27.8508C62.6762 27.8508 62.1165 28.0034 61.6925 28.3087C61.2684 28.597 61.0564 29.0295 61.0563 29.6062C61.0563 30.1829 61.2768 30.6408 61.7177 30.9801C62.1587 31.3193 62.7608 31.489 63.5241 31.489Z" fill="#48358C"/>
<path d="M36.2463 49.1948L36.2471 36.652L38.8167 36.6521L38.8166 38.1278L39.2237 38.1278C39.4273 37.602 39.7496 37.2204 40.1906 36.983C40.6485 36.7286 41.2083 36.6014 41.8698 36.6014L43.3708 36.6015L43.3707 38.9676L41.7678 38.9675C40.9198 38.9675 40.2244 39.2049 39.6816 39.6798C39.1388 40.1377 38.8674 40.85 38.8673 41.8168L38.8668 49.195L36.2463 49.1948Z" fill="#48358C"/>
<path d="M49.6299 49.5518C48.731 49.5518 47.9253 49.3991 47.213 49.0937C46.5176 48.7884 45.9579 48.3389 45.5339 47.7452C45.1269 47.1515 44.9234 46.4307 44.9234 45.5826C44.9235 44.7176 45.127 44.0052 45.5342 43.4455C45.9582 42.8689 46.5264 42.4364 47.2388 42.1481C47.9682 41.8598 48.7908 41.7157 49.7067 41.7157L53.523 41.716L53.5231 40.9018C53.5231 40.1725 53.3026 39.5873 52.8617 39.1463C52.4207 38.7053 51.7423 38.4848 50.8264 38.4847C49.9274 38.4846 49.2405 38.6966 48.7655 39.1206C48.2906 39.5446 47.9768 40.0958 47.8241 40.7743L45.3817 39.9854C45.5853 39.307 45.9076 38.6964 46.3486 38.1537C46.8066 37.594 47.4088 37.1445 48.1551 36.8054C48.9014 36.4662 49.8004 36.2966 50.852 36.2967C52.4802 36.2968 53.7608 36.7124 54.6936 37.5436C55.6264 38.3747 56.0928 39.5536 56.0927 41.0801L56.0924 46.2448C56.0923 46.7536 56.3298 47.0081 56.8047 47.0081L57.8732 47.0082L57.8731 49.1962L55.9141 49.196C55.3204 49.196 54.837 49.0433 54.4639 48.738C54.0908 48.4327 53.9042 48.0171 53.9043 47.4913L53.9043 47.415L53.5227 47.415C53.3869 47.6694 53.1834 47.9662 52.912 48.3054C52.6406 48.6446 52.242 48.9414 51.7162 49.1958C51.1904 49.4332 50.4949 49.5519 49.6299 49.5518ZM50.0117 47.3893C51.0633 47.3894 51.9114 47.0926 52.5559 46.499C53.2005 45.8884 53.5228 45.0573 53.5229 44.0058L53.5229 43.7513L49.8593 43.7511C49.1638 43.7511 48.6041 43.9037 48.1801 44.209C47.756 44.4973 47.544 44.9298 47.5439 45.5064C47.5439 46.0831 47.7644 46.5411 48.2053 46.8803C48.6463 47.2196 49.2484 47.3893 50.0117 47.3893Z" fill="#48358C"/>
<path d="M65.9491 49.5529C64.7448 49.5528 63.6509 49.2983 62.6671 48.7894C61.7004 48.2805 60.9287 47.5426 60.3521 46.5758C59.7924 45.609 59.5126 44.4471 59.5127 43.0902L59.5127 42.7595C59.5128 41.4026 59.7927 40.2492 60.3525 39.2994C60.9293 38.3327 61.701 37.5949 62.6679 37.0861C63.6516 36.5604 64.7457 36.2976 65.9499 36.2976C67.1542 36.2977 68.1803 36.5183 69.0283 36.9593C69.8764 37.4004 70.5548 37.9856 71.0636 38.7149C71.5893 39.4443 71.9285 40.25 72.0811 41.132L69.5369 41.6661C69.4521 41.1064 69.274 40.5975 69.0027 40.1396C68.7313 39.6816 68.3497 39.3169 67.8579 39.0455C67.366 38.7741 66.7469 38.6383 66.0007 38.6383C65.2713 38.6383 64.6098 38.8078 64.0162 39.147C63.4395 39.4692 62.9815 39.9441 62.6422 40.5717C62.3029 41.1823 62.1333 41.9285 62.1332 42.8105L62.1332 43.0395C62.1332 43.9215 62.3027 44.6763 62.6419 45.3039C62.9811 45.9314 63.439 46.4064 64.0157 46.7287C64.6093 47.051 65.2708 47.2122 66.0001 47.2122C67.1026 47.2123 67.9422 46.9325 68.5189 46.3728C69.0956 45.7961 69.4603 45.0668 69.6131 44.1849L72.1572 44.7702C71.9536 45.6352 71.5889 46.4323 71.0631 47.1616C70.5542 47.8909 69.8757 48.4761 69.0276 48.917C68.1795 49.341 67.1533 49.5529 65.9491 49.5529Z" fill="#48358C"/>
<path d="M75.1793 49.1972L75.1805 31.3879L77.801 31.3881L77.8005 38.4355L78.2076 38.4355C78.3772 38.1133 78.6147 37.7995 78.92 37.4942C79.2423 37.1889 79.6579 36.943 80.1667 36.7565C80.6925 36.553 81.354 36.4513 82.1512 36.4513C83.101 36.4514 83.9406 36.6634 84.6699 37.0875C85.4162 37.5116 86.0013 38.1137 86.4253 38.894C86.8493 39.6573 87.0612 40.5817 87.0612 41.6672L87.0607 49.198L84.4402 49.1978L84.4406 41.8706C84.4407 40.785 84.1694 39.9879 83.6266 39.479C83.0839 38.9531 82.3376 38.6902 81.3878 38.6901C80.3023 38.6901 79.4288 39.0462 78.7672 39.7585C78.1227 40.4709 77.8003 41.5055 77.8002 42.8624L77.7999 49.1974L75.1793 49.1972Z" fill="#48358C"/>
<path d="M94.7246 49.5547C93.8257 49.5546 93.02 49.4019 92.3077 49.0966C91.6123 48.7912 91.0526 48.3417 90.6286 47.748C90.2216 47.1544 90.0181 46.4335 90.0181 45.5854C90.0182 44.7204 90.2218 44.008 90.6289 43.4484C91.0529 42.8717 91.6212 42.4392 92.3336 42.1509C93.0629 41.8626 93.8855 41.7185 94.8015 41.7186L98.6177 41.7188L98.6178 40.9047C98.6178 40.1753 98.3974 39.5902 97.9564 39.1491C97.5154 38.7081 96.837 38.4876 95.9211 38.4875C95.0221 38.4875 94.3352 38.6994 93.8603 39.1234C93.3853 39.5474 93.0715 40.0987 92.9188 40.7771L90.4764 39.9882C90.68 39.3098 91.0023 38.6992 91.4433 38.1565C91.9013 37.5968 92.5035 37.1474 93.2498 36.8082C93.9961 36.469 94.8951 36.2995 95.9467 36.2995C97.575 36.2996 98.8555 36.7153 99.7883 37.5464C100.721 38.3776 101.187 39.5564 101.187 41.0829L101.187 46.2476C101.187 46.7565 101.424 47.0109 101.899 47.0109L102.968 47.011L102.968 49.199L101.009 49.1989C100.415 49.1988 99.9318 49.0461 99.5586 48.7408C99.1855 48.4355 98.999 48.0199 98.999 47.4941L98.999 47.4178L98.6174 47.4178C98.4817 47.6722 98.2781 47.969 98.0067 48.3082C97.7353 48.6474 97.3367 48.9442 96.8109 49.1986C96.2851 49.436 95.5897 49.5547 94.7246 49.5547ZM95.1064 47.3921C96.158 47.3922 97.0061 47.0954 97.6506 46.5018C98.2952 45.8913 98.6175 45.0602 98.6176 44.0086L98.6176 43.7542L94.954 43.7539C94.2586 43.7539 93.6988 43.9065 93.2748 44.2118C92.8507 44.5001 92.6387 44.9326 92.6387 45.5093C92.6386 46.086 92.8591 46.5439 93.3001 46.8832C93.741 47.2224 94.3431 47.3921 95.1064 47.3921Z" fill="#48358C"/>
<path d="M105.516 49.1991L105.517 36.6563L108.086 36.6565L108.086 38.1321L108.493 38.1321C108.697 37.6063 109.019 37.2247 109.46 36.9873C109.918 36.7329 110.478 36.6057 111.139 36.6058L112.64 36.6059L112.64 38.972L111.037 38.9719C110.189 38.9718 109.494 39.2092 108.951 39.6841C108.408 40.142 108.137 40.8544 108.137 41.8212L108.136 49.1993L105.516 49.1991Z" fill="#48358C"/>
<path d="M53.0789 41.3336L53.0787 44.1163" stroke="white" stroke-width="0.898416" stroke-linecap="round"/>
<ellipse cx="16.4991" cy="16.7037" rx="0.301689" ry="1.22059" transform="rotate(-179.996 16.4991 16.7037)" fill="#48358C"/>
<ellipse cx="16.4981" cy="32.0712" rx="0.301689" ry="1.21794" transform="rotate(-179.996 16.4981 32.0712)" fill="#48358C"/>
<ellipse cx="56.8931" cy="21.8844" rx="0.301689" ry="1.18233" transform="rotate(-179.996 56.8931 21.8844)" fill="#48358C"/>
<ellipse cx="43.3591" cy="37.7855" rx="0.301689" ry="1.18233" transform="rotate(-179.996 43.3591 37.7855)" fill="#48358C"/>
<ellipse cx="57.8773" cy="48.1106" rx="0.301689" ry="1.09309" transform="rotate(-179.996 57.8773 48.1106)" fill="#48358C"/>
<ellipse cx="46.603" cy="40.3864" rx="0.301689" ry="1.28579" transform="rotate(-71.4269 46.603 40.3864)" fill="#48358C"/>
<ellipse cx="52.6278" cy="42.7432" rx="0.301689" ry="1.01513" fill="#48358C"/>
<ellipse cx="37.5329" cy="36.6641" rx="0.301689" ry="1.28579" transform="rotate(-89.9964 37.5329 36.6641)" fill="#48358C"/>
<path d="M98.1758 41.3264L98.1757 44.1091" stroke="white" stroke-width="0.898416" stroke-linecap="round"/>
<ellipse cx="102.974" cy="48.1034" rx="0.301689" ry="1.09309" transform="rotate(-179.996 102.974 48.1034)" fill="#48358C"/>
<ellipse cx="91.6999" cy="40.3792" rx="0.301689" ry="1.28579" transform="rotate(-71.4269 91.6999 40.3792)" fill="#48358C"/>
<ellipse cx="97.7247" cy="42.736" rx="0.301689" ry="1.01513" fill="#48358C"/>
<ellipse cx="106.797" cy="36.6702" rx="0.301689" ry="1.28579" transform="rotate(-89.9964 106.797 36.6702)" fill="#48358C"/>
<ellipse cx="112.646" cy="37.7891" rx="0.301689" ry="1.18233" transform="rotate(-179.996 112.646 37.7891)" fill="#48358C"/>
<ellipse cx="76.4669" cy="31.3881" rx="0.301689" ry="1.28579" transform="rotate(-89.9964 76.4669 31.3881)" fill="#48358C"/>
<path d="M78.4909 38.6873C78.4909 38.1013 78.6536 37.743 78.7926 37.6263C78.9316 37.5096 78.7926 38.6873 78.7926 38.6873C78.7926 38.6873 78.8321 39.7488 78.7925 39.7483C78.7529 39.7477 78.4908 39.2732 78.4909 38.6873Z" fill="#48358C"/>
<ellipse cx="0.253333" cy="1.29899" rx="0.253333" ry="1.29899" transform="matrix(-0.202996 -0.97918 -0.97918 0.202996 72.1308 41.3723)" fill="#48358C"/>
<ellipse cx="70.8851" cy="44.4774" rx="0.253333" ry="1.30961" transform="rotate(103.802 70.8851 44.4774)" fill="#48358C"/>
<path d="M22.4525 22.0972L22.4527 27.2583" stroke="white" stroke-width="1.59012" stroke-linecap="round"/>
<ellipse cx="23.2277" cy="24.325" rx="0.301689" ry="1.26143" transform="rotate(-179.996 23.2277 24.325)" fill="#48358C"/>
<path d="M66.5925 25.4269L66.5923 28.2096" stroke="white" stroke-width="0.898416" stroke-linecap="round"/>
<ellipse cx="71.3908" cy="32.2039" rx="0.301689" ry="1.09309" transform="rotate(-179.996 71.3908 32.2039)" fill="#48358C"/>
<ellipse cx="60.1165" cy="24.4796" rx="0.301689" ry="1.28579" transform="rotate(-71.4269 60.1165 24.4796)" fill="#48358C"/>
<ellipse cx="66.1414" cy="26.8364" rx="0.301689" ry="1.01513" fill="#48358C"/>
<ellipse cx="51.0441" cy="20.7655" rx="0.301689" ry="1.28579" transform="rotate(-89.9964 51.0441 20.7655)" fill="#48358C"/>
<path d="M78.2613 52.4573L78.2629 27.0154" stroke="white" stroke-width="1.03358" stroke-linecap="round"/>
<path d="M0.494361 14.8972C0.543105 14.6373 0.869129 14.49 1.19055 14.5826L10.2975 17.2066C10.5685 17.2847 10.7414 17.5082 10.7003 17.7273L10.5037 18.7758C10.46 19.0088 10.1902 19.1562 9.8932 19.1094L0.569803 17.6392C0.256906 17.5899 0.0352231 17.345 0.0812692 17.0995L0.494361 14.8972Z" fill="#F27405"/>
<path d="M5.9085 3.36539C6.09546 3.17843 6.44772 3.24093 6.66071 3.49884L12.6956 10.8065C12.8751 11.024 12.8917 11.3061 12.734 11.4638L11.9797 12.2181C11.8121 12.3857 11.5062 12.3551 11.2875 12.1487L4.42255 5.67111C4.19216 5.45372 4.14748 5.12641 4.32409 4.9498L5.9085 3.36539Z" fill="#F27405"/>
<path d="M18.9472 0.114082C19.2026 0.0456509 19.4764 0.275904 19.5319 0.605762L21.1044 9.95185C21.1512 10.23 21.0244 10.4825 20.8091 10.5402L19.7787 10.8163C19.5497 10.8777 19.3001 10.6982 19.2139 10.4102L16.5075 1.36792C16.4166 1.06446 16.5416 0.75866 16.7829 0.694016L18.9472 0.114082Z" fill="#F27405"/>
</svg>
