<svg width="330" height="139" viewBox="0 0 330 139" fill="none" xmlns="http://www.w3.org/2000/svg">
<path d="M283.537 101.541L283.587 99.8281C283.658 97.4018 284.192 95.4176 285.189 93.8753C286.234 92.3345 287.866 91.0726 290.085 90.0897L291.315 89.5541C293.485 88.6174 295.158 87.5948 296.333 86.4863C297.508 85.3777 298.123 83.872 298.179 81.9691C298.219 80.5895 297.896 79.4135 297.21 78.4413C296.573 77.4229 295.644 76.634 294.422 76.0747C293.2 75.5154 291.756 75.2115 290.091 75.163C288.378 75.1131 286.823 75.3536 285.427 75.8843C284.078 76.4164 282.983 77.2416 282.141 78.3598C281.346 79.4794 280.924 80.8955 280.874 82.6082L280.828 84.1781L271.55 83.9081L271.592 82.4809C271.687 79.1983 272.579 76.3912 274.266 74.0596C275.952 71.728 278.194 69.984 280.989 68.8274C283.786 67.6232 286.898 67.071 290.324 67.1707C293.702 67.269 296.681 67.9747 299.262 69.2878C301.891 70.6022 303.934 72.3758 305.393 74.6085C306.852 76.8412 307.54 79.3847 307.457 82.2391C307.374 85.0935 306.782 87.4332 305.681 89.2581C304.582 91.0354 303.207 92.4714 301.556 93.5661C299.954 94.6146 298.308 95.5189 296.619 96.2792L295.39 96.8148C294.522 97.1704 293.913 97.6289 293.564 98.1901C293.215 98.7037 293.026 99.4838 292.996 100.53L292.958 101.815L283.537 101.541Z" fill="#F27405"/>
<path d="M288.027 119.098C286.123 119.043 284.524 118.377 283.227 117.101C281.98 115.779 281.386 114.119 281.444 112.121C281.502 110.123 282.191 108.525 283.512 107.325C284.882 106.079 286.518 105.484 288.421 105.54C290.372 105.596 291.971 106.286 293.218 107.608C294.467 108.882 295.062 110.518 295.004 112.516C294.946 114.514 294.256 116.137 292.934 117.384C291.613 118.583 289.977 119.155 288.027 119.098Z" fill="#F27405"/>
<path d="M276.172 84.6557C278.734 84.7235 280.819 84.4926 280.828 84.1402C280.838 83.7877 278.768 83.4471 276.206 83.3794C273.644 83.3117 271.559 83.5425 271.55 83.8949C271.54 84.2474 273.61 84.588 276.172 84.6557Z" fill="#F27405"/>
<path d="M288.23 102.322C290.832 102.391 292.948 102.161 292.957 101.808C292.967 101.456 290.865 101.114 288.264 101.046C285.663 100.977 283.546 101.207 283.537 101.559C283.528 101.912 285.629 102.253 288.23 102.322Z" fill="#F27405"/>
<path d="M52.4631 80.5867L52.4635 75.1944L57.7435 75.1947L57.7452 46.6602L52.4652 46.6599L52.4656 41.2676L72.406 41.2688C74.7652 41.269 76.8247 41.681 78.5847 42.505C80.3446 43.2915 81.7113 44.4337 82.6849 45.9316C83.6958 47.3921 84.2013 49.1334 84.2011 51.1555L84.2011 51.7172C84.201 53.5147 83.8639 54.9938 83.1898 56.1546C82.5156 57.3154 81.6918 58.2141 80.7181 58.8506C79.7819 59.4872 78.8831 59.9365 78.0218 60.1985L78.0218 61.0973C78.883 61.322 79.8005 61.7714 80.774 62.4455C81.7851 63.0822 82.6276 63.981 83.3015 65.1419C84.0129 66.3027 84.3686 67.8194 84.3685 69.6917L84.3684 70.2534C84.3683 72.4253 83.8627 74.2789 82.8515 75.8142C81.8403 77.3494 80.436 78.5289 78.6385 79.3526C76.8785 80.1763 74.8376 80.5881 72.5159 80.588L52.4631 80.5867ZM63.866 75.0828L71.786 75.0833C73.8081 75.0834 75.3997 74.5967 76.5606 73.6231C77.7215 72.6496 78.302 71.3015 78.3021 69.579L78.3021 69.0735C78.3022 67.3509 77.7219 66.0028 76.5611 65.0291C75.4378 64.0554 73.8463 63.5685 71.7867 63.5684L63.8667 63.5679L63.866 75.0828ZM63.8671 58.007L71.7871 58.0075C73.6969 58.0076 75.2322 57.5396 76.3931 56.6035C77.554 55.63 78.1345 54.3194 78.1347 52.6717L78.1347 52.11C78.1348 50.4624 77.5544 49.1704 76.3937 48.2342C75.2703 47.2605 73.735 46.7736 71.7878 46.7735L63.8678 46.773L63.8671 58.007Z" fill="white"/>
<path d="M104.313 81.3764C101.542 81.3762 99.0705 80.8143 96.8986 79.6908C94.7642 78.5298 93.0792 76.882 91.8436 74.7475C90.608 72.6129 89.9903 70.0852 89.9905 67.1644L89.9905 66.3218C89.9907 63.401 90.6088 60.8921 91.8446 58.7952C93.0805 56.6608 94.7657 55.0132 96.9003 53.8525C99.0722 52.6918 101.544 52.1115 104.315 52.1117C107.086 52.1119 109.557 52.6924 111.729 53.8534C113.901 55.0144 115.605 56.6622 116.84 58.7967C118.076 60.8938 118.694 63.4028 118.694 66.3236L118.693 67.1662C118.693 70.087 118.075 72.6147 116.839 74.7491C115.603 76.8835 113.9 78.531 111.728 79.6917C109.556 80.815 107.084 81.3765 104.313 81.3764ZM104.313 76.2087C106.86 76.2089 108.919 75.4039 110.492 73.7938C112.103 72.1462 112.908 69.8807 112.908 66.9973L112.908 66.4918C112.908 63.6084 112.122 61.3615 110.549 59.7512C108.977 58.1035 106.898 57.2795 104.315 57.2793C101.806 57.2792 99.7459 58.1029 98.1356 59.7504C96.5628 61.3606 95.7762 63.6073 95.7761 66.4907L95.776 66.9963C95.7758 69.8797 96.5621 72.1452 98.1348 73.793C99.7449 75.4033 101.804 76.2085 104.313 76.2087Z" fill="white"/>
<path d="M125.896 80.5913L125.897 52.8994L131.571 52.8998L131.57 56.1576L132.469 56.1577C132.918 54.9969 133.63 54.1544 134.604 53.6302C135.615 53.0685 136.851 52.7878 138.311 52.7878L141.625 52.7881L141.625 58.0119L138.086 58.0117C136.214 58.0115 134.678 58.5357 133.48 59.5841C132.282 60.5951 131.682 62.1679 131.682 64.3023L131.681 80.5917L125.896 80.5913Z" fill="white"/>
<path d="M155.444 81.3796C153.459 81.3794 151.68 81.0423 150.108 80.3682C148.572 79.694 147.337 78.7016 146.401 77.3909C145.502 76.0802 145.053 74.4887 145.053 72.6164C145.053 70.7066 145.502 69.1338 146.401 67.8981C147.337 66.625 148.592 65.6702 150.165 65.0337C151.775 64.3972 153.591 64.079 155.613 64.0791L164.039 64.0797L164.039 62.2822C164.039 60.672 163.552 59.3801 162.579 58.4064C161.605 57.4327 160.107 56.9458 158.085 56.9457C156.101 56.9456 154.584 57.4135 153.535 58.3497C152.487 59.2858 151.794 60.5027 151.457 62.0006L146.065 60.259C146.514 58.7611 147.226 57.4131 148.199 56.2149C149.21 54.9792 150.54 53.9869 152.188 53.2381C153.835 52.4892 155.82 52.1149 158.142 52.115C161.737 52.1153 164.564 53.0329 166.623 54.8679C168.683 56.7029 169.712 59.3056 169.712 62.6758L169.711 74.0783C169.711 75.2017 170.236 75.7635 171.284 75.7635L173.643 75.7637L173.643 80.5943L169.318 80.594C168.007 80.594 166.94 80.2569 166.116 79.5828C165.292 78.9087 164.881 77.9912 164.881 76.8304L164.881 76.6619L164.038 76.6618C163.738 77.2235 163.289 77.8788 162.69 78.6277C162.091 79.3766 161.211 80.0318 160.05 80.5935C158.889 81.1176 157.353 81.3797 155.444 81.3796ZM156.287 76.6051C158.608 76.6053 160.481 75.9501 161.904 74.6395C163.327 73.2915 164.038 71.4567 164.039 69.135L164.039 68.5733L155.95 68.5728C154.415 68.5727 153.179 68.9096 152.243 69.5836C151.307 70.2202 150.838 71.175 150.838 72.4482C150.838 73.7214 151.325 74.7325 152.299 75.4815C153.272 76.2305 154.601 76.605 156.287 76.6051Z" fill="white"/>
<path d="M96.0635 115.692L96.0653 88.0003L101.738 88.0006L101.738 91.2585L102.637 91.2586C103.086 90.0977 103.798 89.2552 104.772 88.731C105.783 88.1694 107.018 87.8886 108.479 87.8887L111.793 87.8889L111.793 93.1128L108.254 93.1125C106.382 93.1124 104.846 93.6366 103.648 94.685C102.449 95.696 101.85 97.2687 101.85 99.4032L101.849 115.693L96.0635 115.692Z" fill="white"/>
<path d="M125.612 116.48C123.627 116.48 121.848 116.143 120.276 115.469C118.74 114.795 117.505 113.802 116.568 112.492C115.67 111.181 115.221 109.59 115.221 107.717C115.221 105.807 115.67 104.235 116.569 102.999C117.505 101.726 118.76 100.771 120.333 100.135C121.943 99.4981 123.759 99.1799 125.781 99.18L134.207 99.1805L134.207 97.3831C134.207 95.7729 133.72 94.4809 132.747 93.5073C131.773 92.5336 130.275 92.0467 128.253 92.0466C126.268 92.0464 124.752 92.5144 123.703 93.4505C122.655 94.3866 121.962 95.6036 121.625 97.1015L116.233 95.3598C116.682 93.862 117.394 92.514 118.367 91.3157C119.378 90.08 120.708 89.0878 122.356 88.339C124.003 87.5901 125.988 87.2158 128.31 87.2159C131.905 87.2161 134.732 88.1338 136.791 89.9688C138.851 91.8038 139.88 94.4064 139.88 97.7766L139.879 109.179C139.879 110.303 140.403 110.864 141.452 110.864L143.811 110.865L143.811 115.695L139.486 115.695C138.175 115.695 137.108 115.358 136.284 114.684C135.46 114.01 135.048 113.092 135.049 111.931L135.049 111.763L134.206 111.763C133.906 112.324 133.457 112.98 132.858 113.729C132.259 114.477 131.379 115.133 130.218 115.694C129.057 116.219 127.521 116.481 125.612 116.48ZM126.454 111.706C128.776 111.706 130.649 111.051 132.072 109.74C133.495 108.392 134.206 106.558 134.206 104.236L134.206 103.674L126.118 103.674C124.583 103.674 123.347 104.011 122.411 104.684C121.474 105.321 121.006 106.276 121.006 107.549C121.006 108.822 121.493 109.833 122.466 110.582C123.44 111.331 124.769 111.706 126.454 111.706Z" fill="white"/>
<path d="M161.641 116.483C158.982 116.483 156.567 115.921 154.395 114.797C152.261 113.674 150.557 112.045 149.284 109.91C148.048 107.775 147.431 105.21 147.431 102.215L147.431 101.484C147.431 98.4886 148.049 95.9423 149.285 93.8453C150.558 91.7109 152.262 90.0821 154.397 88.9588C156.569 87.7981 158.984 87.2178 161.643 87.218C164.301 87.2182 166.567 87.7051 168.439 88.6789C170.311 89.6526 171.809 90.9446 172.933 92.5549C174.093 94.1652 174.842 95.9439 175.179 97.8912L169.562 99.0704C169.375 97.8347 168.982 96.7112 168.383 95.7001C167.784 94.689 166.941 93.8839 165.855 93.2847C164.769 92.6854 163.402 92.3858 161.755 92.3857C160.145 92.3856 158.684 92.7599 157.373 93.5088C156.1 94.2202 155.089 95.2687 154.34 96.6541C153.591 98.0022 153.216 99.6498 153.216 101.597L153.216 102.103C153.216 104.05 153.59 105.716 154.339 107.102C155.088 108.487 156.099 109.536 157.372 110.248C158.683 110.959 160.143 111.315 161.754 111.315C164.188 111.315 166.041 110.697 167.315 109.462C168.588 108.189 169.393 106.578 169.73 104.631L175.347 105.924C174.898 107.833 174.092 109.593 172.931 111.203C171.808 112.814 170.31 114.105 168.438 115.079C166.565 116.015 164.3 116.483 161.641 116.483Z" fill="white"/>
<path d="M182.019 115.698L182.022 76.3784L187.807 76.3788L187.806 91.9379L188.705 91.938C189.08 91.2265 189.604 90.5338 190.278 89.8598C190.989 89.1858 191.907 88.6429 193.03 88.231C194.191 87.7817 195.652 87.5572 197.412 87.5573C199.509 87.5574 201.362 88.0256 202.972 88.9619C204.62 89.8981 205.912 91.2276 206.848 92.9502C207.784 94.6354 208.252 96.6762 208.252 99.0728L208.251 115.699L202.465 115.699L202.466 99.5218C202.466 97.1252 201.867 95.3652 200.669 94.2417C199.471 93.0808 197.823 92.5003 195.726 92.5001C193.33 92.5 191.401 93.2863 189.941 94.8589C188.518 96.4316 187.806 98.7158 187.806 101.712L187.805 115.698L182.019 115.698Z" fill="white"/>
<path d="M225.171 116.487C223.186 116.487 221.408 116.149 219.835 115.475C218.3 114.801 217.064 113.809 216.128 112.498C215.229 111.187 214.78 109.596 214.78 107.723C214.78 105.814 215.23 104.241 216.129 103.005C217.065 101.732 218.319 100.777 219.892 100.141C221.502 99.5043 223.319 99.1861 225.341 99.1862L233.766 99.1868L233.766 97.3893C233.766 95.7791 233.28 94.4872 232.306 93.5135C231.333 92.5398 229.835 92.0529 227.813 92.0528C225.828 92.0527 224.311 92.5207 223.263 93.4568C222.214 94.3929 221.521 95.6098 221.184 97.1077L215.792 95.3661C216.242 93.8682 216.953 92.5202 217.927 91.322C218.938 90.0863 220.267 89.094 221.915 88.3452C223.563 87.5964 225.547 87.222 227.869 87.2222C231.464 87.2224 234.291 88.14 236.351 89.975C238.41 91.81 239.44 94.4127 239.44 97.7829L239.439 109.185C239.439 110.309 239.963 110.871 241.012 110.871L243.371 110.871L243.37 115.701L239.045 115.701C237.735 115.701 236.667 115.364 235.844 114.69C235.02 114.016 234.608 113.098 234.608 111.937L234.608 111.769L233.765 111.769C233.466 112.331 233.016 112.986 232.417 113.735C231.818 114.484 230.938 115.139 229.777 115.701C228.616 116.225 227.081 116.487 225.171 116.487ZM226.014 111.712C228.336 111.712 230.208 111.057 231.631 109.747C233.054 108.399 233.766 106.564 233.766 104.242L233.766 103.68L225.677 103.68C224.142 103.68 222.906 104.017 221.97 104.691C221.034 105.327 220.566 106.282 220.566 107.555C220.566 108.829 221.052 109.84 222.026 110.589C223 111.338 224.329 111.712 226.014 111.712Z" fill="white"/>
<path d="M248.996 115.702L248.997 88.0099L254.671 88.0102L254.67 91.2681L255.569 91.2681C256.019 90.1073 256.73 89.2648 257.704 88.7406C258.715 88.179 259.951 87.8982 261.411 87.8983L264.725 87.8985L264.725 93.1223L261.186 93.1221C259.314 93.122 257.778 93.6462 256.58 94.6946C255.382 95.7056 254.782 97.2783 254.782 99.4128L254.781 115.702L248.996 115.702Z" fill="white"/>
<path d="M133.227 98.3473L133.226 104.491" stroke="#724FD8" stroke-width="1.98351" stroke-linecap="round"/>
<ellipse cx="52.4583" cy="43.961" rx="0.666066" ry="2.69481" transform="rotate(-179.996 52.4583 43.961)" fill="white"/>
<ellipse cx="52.4583" cy="77.8907" rx="0.666066" ry="2.68896" transform="rotate(-179.996 52.4583 77.8907)" fill="white"/>
<ellipse cx="141.644" cy="55.4021" rx="0.666066" ry="2.61033" transform="rotate(-179.996 141.644 55.4021)" fill="white"/>
<ellipse cx="111.764" cy="90.5076" rx="0.666066" ry="2.61033" transform="rotate(-179.996 111.764 90.5076)" fill="white"/>
<ellipse cx="143.814" cy="113.302" rx="0.666066" ry="2.41331" transform="rotate(-179.996 143.814 113.302)" fill="white"/>
<ellipse cx="118.921" cy="96.2525" rx="0.666066" ry="2.83875" transform="rotate(-71.4269 118.921 96.2525)" fill="white"/>
<ellipse cx="132.221" cy="101.461" rx="0.666066" ry="2.2412" fill="white"/>
<ellipse cx="98.9017" cy="88.0306" rx="0.666066" ry="2.83875" transform="rotate(-89.9964 98.9017 88.0306)" fill="white"/>
<path d="M232.781 98.3215L232.78 104.465" stroke="#724FD8" stroke-width="1.98351" stroke-linecap="round"/>
<ellipse cx="243.377" cy="113.285" rx="0.666066" ry="2.41331" transform="rotate(-179.996 243.377 113.285)" fill="white"/>
<ellipse cx="218.492" cy="96.2353" rx="0.666066" ry="2.83875" transform="rotate(-71.4269 218.492 96.2353)" fill="white"/>
<ellipse cx="231.793" cy="101.435" rx="0.666066" ry="2.2412" fill="white"/>
<ellipse cx="251.815" cy="88.0478" rx="0.666066" ry="2.83875" transform="rotate(-89.9964 251.815 88.0478)" fill="white"/>
<ellipse cx="264.728" cy="90.5162" rx="0.666066" ry="2.61033" transform="rotate(-179.996 264.728 90.5162)" fill="white"/>
<ellipse cx="184.852" cy="76.3774" rx="0.666066" ry="2.83875" transform="rotate(-89.9964 184.852 76.3774)" fill="white"/>
<path d="M189.332 92.4985C189.332 91.2048 189.691 90.4137 189.998 90.1561C190.305 89.8985 189.998 92.4985 189.998 92.4985C189.998 92.4985 190.085 94.8422 189.998 94.841C189.911 94.8398 189.332 93.7922 189.332 92.4985Z" fill="white"/>
<ellipse cx="0.559304" cy="2.86789" rx="0.559304" ry="2.86789" transform="matrix(-0.202996 -0.97918 -0.97918 0.202996 175.284 98.4246)" fill="white"/>
<ellipse cx="172.532" cy="105.282" rx="0.559304" ry="2.89134" transform="rotate(103.802 172.532 105.282)" fill="white"/>
<path d="M65.6063 55.8764L65.6067 67.271" stroke="#724FD8" stroke-width="3.51064" stroke-linecap="round"/>
<ellipse cx="67.3169" cy="60.7919" rx="0.666066" ry="2.78497" transform="rotate(-179.996 67.3169 60.7919)" fill="white"/>
<path d="M163.064 63.2246L163.064 69.3682" stroke="#724FD8" stroke-width="1.98351" stroke-linecap="round"/>
<ellipse cx="173.656" cy="78.1921" rx="0.666066" ry="2.41331" transform="rotate(-179.996 173.656 78.1921)" fill="white"/>
<ellipse cx="148.754" cy="61.1298" rx="0.666066" ry="2.83875" transform="rotate(-71.4269 148.754 61.1298)" fill="white"/>
<ellipse cx="162.054" cy="66.3338" rx="0.666066" ry="2.2412" fill="white"/>
<ellipse cx="128.731" cy="52.9294" rx="0.666066" ry="2.83875" transform="rotate(-89.9964 128.731 52.9294)" fill="white"/>
<path d="M188.816 122.901L188.82 66.7308" stroke="#724FD8" stroke-width="2.28191" stroke-linecap="round"/>
<path d="M17.1198 39.9652C17.2274 39.3915 17.9472 39.0662 18.6568 39.2707L38.763 45.0638C39.3614 45.2362 39.7431 45.7297 39.6524 46.2135L39.2182 48.5282C39.1217 49.0427 38.5262 49.3681 37.8704 49.2647L17.2863 46.019C16.5955 45.9101 16.1061 45.3693 16.2078 44.8274L17.1198 39.9652Z" fill="#F27405"/>
<path d="M29.0677 14.5086C29.4805 14.0958 30.2582 14.2338 30.7285 14.8032L44.0521 30.937C44.4486 31.4171 44.4851 32.04 44.137 32.388L42.4717 34.0533C42.1016 34.4235 41.4263 34.3558 40.9435 33.9002L25.7871 19.5991C25.2784 19.1191 25.1798 18.3965 25.5697 18.0066L29.0677 14.5086Z" fill="#F27405"/>
<path d="M57.8541 7.33051C58.418 7.17943 59.0225 7.68778 59.145 8.41604L62.6168 29.0502C62.7201 29.6642 62.4402 30.2219 61.9648 30.3492L59.6899 30.9588C59.1843 31.0943 58.6334 30.698 58.443 30.0621L52.4677 10.0987C52.2672 9.42874 52.5431 8.7536 53.0757 8.61088L57.8541 7.33051Z" fill="#F27405"/>
</svg>
