<svg width="241" height="89" viewBox="0 0 241 89" fill="none" xmlns="http://www.w3.org/2000/svg">
<g clip-path="url(#clip0_102_325)">
<path d="M68.9408 58.4537C66.5564 58.4537 64.4297 57.9701 62.5609 57.0031C60.7242 56.0038 59.2742 54.5854 58.2109 52.748C57.1475 50.9106 56.6159 48.7347 56.6159 46.2204L56.6159 45.4951C56.6159 42.9807 57.1475 40.8209 58.2109 39.0158C59.2742 37.1783 60.7242 35.76 62.5609 34.7607C64.4297 33.7614 66.5564 33.2618 68.9408 33.2618C71.3253 33.2618 73.4519 33.7614 75.3208 34.7607C77.1897 35.76 78.6558 37.1783 79.7191 39.0158C80.7824 40.8209 81.3141 42.9807 81.3141 45.4951L81.3141 46.2204C81.3141 48.7347 80.7824 50.9106 79.7191 52.748C78.6558 54.5854 77.1897 56.0038 75.3208 57.0031C73.4519 57.9701 71.3253 58.4537 68.9408 58.4537ZM68.9408 54.0052C71.1319 54.0052 72.9041 53.3121 74.2575 51.926C75.643 50.5076 76.3358 48.5574 76.3358 46.0753L76.3358 45.6401C76.3358 43.158 75.6591 41.2239 74.3058 39.8378C72.9525 38.4194 71.1642 37.7102 68.9408 37.7102C66.782 37.7102 65.0097 38.4194 63.6242 39.8378C62.2709 41.2239 61.5942 43.158 61.5942 45.6401L61.5942 46.0753C61.5942 48.5574 62.2709 50.5076 63.6242 51.926C65.0097 53.3121 66.782 54.0052 68.9408 54.0052Z" fill="#563BA2"/>
<path d="M87.5121 57.7767L87.5121 33.9387L92.3937 33.9387L92.3937 36.7432L93.1671 36.7432C93.5537 35.7439 94.1659 35.0186 95.0037 34.5673C95.8737 34.0838 96.937 33.842 98.1937 33.842L101.045 33.842L101.045 38.3388L98.0004 38.3388C96.3893 38.3388 95.0682 38.7901 94.037 39.6927C93.0059 40.5631 92.4904 41.9169 92.4904 43.7543L92.4904 57.7767L87.5121 57.7767Z" fill="#563BA2"/>
<path fill-rule="evenodd" clip-rule="evenodd" d="M24.3252 53.1348L24.3252 57.7767L41.5801 57.7767C43.5779 57.7767 45.334 57.4221 46.8484 56.7129C48.3951 56.0038 49.6034 54.9884 50.4734 53.6667C51.3434 52.3451 51.7784 50.7494 51.7784 48.8798L51.7784 48.3962C51.7784 46.7845 51.4723 45.4789 50.8601 44.4796C50.2801 43.4804 49.5551 42.7067 48.6851 42.1587C47.8473 41.5785 47.0579 41.1916 46.3168 40.9982L46.3168 40.2246C47.0579 39.9989 47.8312 39.6121 48.6368 39.0641C49.4745 38.5161 50.1834 37.7425 50.7634 36.7432C51.3434 35.7439 51.6334 34.4706 51.6334 32.9233L51.6334 32.4398C51.6334 30.699 51.1984 29.2001 50.3284 27.9429C49.4906 26.6535 48.3145 25.6703 46.8001 24.9934C45.2857 24.2842 43.5135 23.9296 41.4835 23.9296L24.3252 23.9296L24.3252 28.5715L28.8685 28.5715L28.8685 53.1348L24.3252 53.1348ZM40.9518 53.0381L34.1368 53.0381L34.1368 43.1258L34.1368 38.3388L34.1368 28.6682L40.9518 28.6682C42.6273 28.6682 43.9484 29.0873 44.9151 29.9254C45.914 30.7313 46.4134 31.8434 46.4134 33.2618L46.4134 33.7453C46.4134 35.1636 45.914 36.2919 44.9151 37.13C43.9162 37.9359 42.5951 38.3388 40.9518 38.3388L37.1421 38.3388L37.1407 43.1258L40.9518 43.1258C42.724 43.1258 44.0934 43.5448 45.0601 44.3829C46.059 45.2211 46.5584 46.3815 46.5584 47.8644L46.5584 48.2995C46.5584 49.7824 46.059 50.9428 45.0601 51.7809C44.0612 52.6191 42.6918 53.0381 40.9518 53.0381Z" fill="#563BA2"/>
<path fill-rule="evenodd" clip-rule="evenodd" d="M108.346 57.5833C109.699 58.1635 111.23 58.4537 112.938 58.4537C114.581 58.4537 115.902 58.228 116.901 57.7767C117.9 57.2932 118.657 56.7291 119.173 56.0844C119.688 55.4397 120.075 54.8755 120.333 54.392L121.058 54.392L121.058 54.5371C121.058 55.5364 121.412 56.3261 122.121 56.9064C122.83 57.4866 123.748 57.7767 124.876 57.7767L128.598 57.7767L128.598 53.6184L126.568 53.6184C125.665 53.6184 125.214 53.1348 125.214 52.1678L125.214 42.3521C125.214 39.4509 124.328 37.2106 122.556 35.631C120.784 34.0515 118.351 33.2618 115.258 33.2618C113.26 33.2618 111.552 33.5841 110.134 34.2288C108.716 34.8735 107.573 35.7278 106.703 36.7915C105.865 37.8231 105.253 38.9835 104.866 40.2729L109.506 41.7719C109.796 40.4825 110.392 39.4348 111.294 38.6289C112.196 37.8231 113.501 37.4201 115.209 37.4201C116.949 37.4201 118.238 37.8392 119.076 38.6773C119.914 39.5154 120.333 40.6275 120.333 42.0136L120.333 43.5609L120.333 47.4292L120.333 47.9127C120.333 49.9113 119.72 51.4908 118.496 52.6513C117.271 53.7795 115.66 54.3437 113.663 54.3437C112.213 54.3437 111.069 54.0213 110.231 53.3766C109.393 52.7319 108.974 51.8615 108.974 50.7655C108.974 49.6695 109.377 48.8475 110.183 48.2995C110.988 47.7193 112.051 47.4292 113.373 47.4292L118.646 47.4292L118.646 43.5609L113.083 43.5609C111.343 43.5609 109.78 43.8349 108.394 44.3829C107.041 44.9309 105.961 45.7529 105.156 46.8489C104.383 47.9127 103.996 49.2666 103.996 50.9106C103.996 52.5224 104.383 53.8924 105.156 55.0206C105.961 56.1488 107.025 57.0031 108.346 57.5833Z" fill="#563BA2"/>
<path d="M61.8408 87.9958L61.8408 64.1578L66.7225 64.1578L66.7225 66.9623L67.4958 66.9623C67.8825 65.963 68.4947 65.2377 69.3325 64.7864C70.2024 64.3028 71.2658 64.0611 72.5224 64.0611L75.3741 64.0611L75.3741 68.5579L72.3291 68.5579C70.718 68.5579 69.3969 69.0092 68.3658 69.9118C67.3347 70.7821 66.8191 72.136 66.8191 73.9734L66.8191 87.9958L61.8408 87.9958Z" fill="#563BA2"/>
<path d="M118.269 88.6727C115.981 88.6727 113.903 88.1892 112.034 87.2222C110.197 86.2551 108.731 84.8529 107.635 83.0154C106.572 81.178 106.04 78.9699 106.04 76.3911L106.04 75.7625C106.04 73.1837 106.572 70.9917 107.635 69.1865C108.731 67.3491 110.197 65.9468 112.034 64.9798C113.903 63.9805 115.981 63.4808 118.269 63.4808C120.556 63.4808 122.506 63.8999 124.117 64.738C125.728 65.5761 127.017 66.6883 127.984 68.0744C128.982 69.4605 129.627 70.9917 129.917 72.6679L125.084 73.6833C124.922 72.6196 124.584 71.6525 124.069 70.7821C123.553 69.9118 122.828 69.2187 121.894 68.703C120.959 68.1872 119.783 67.9293 118.365 67.9293C116.98 67.9293 115.723 68.2517 114.595 68.8964C113.5 69.5088 112.63 70.4114 111.985 71.6041C111.341 72.7646 111.019 74.183 111.019 75.8592L111.019 76.2944C111.019 77.9706 111.341 79.4051 111.985 80.5978C112.63 81.7905 113.5 82.6931 114.595 83.3056C115.723 83.918 116.98 84.2243 118.365 84.2243C120.46 84.2243 122.055 83.6924 123.15 82.6286C124.246 81.5326 124.939 80.1465 125.229 78.4703L130.062 79.5824C129.675 81.2264 128.982 82.7414 127.984 84.1276C127.017 85.5137 125.728 86.6258 124.117 87.4639C122.506 88.2698 120.556 88.6727 118.269 88.6727Z" fill="#563BA2"/>
<path d="M193.435 87.9958L193.435 64.1578L198.317 64.1578L198.317 66.9623L199.09 66.9623C199.477 65.963 200.089 65.2377 200.927 64.7864C201.797 64.3028 202.86 64.0611 204.117 64.0611L206.969 64.0611L206.969 68.5579L203.924 68.5579C202.312 68.5579 200.991 69.0092 199.96 69.9118C198.929 70.7821 198.414 72.136 198.414 73.9734L198.414 87.9958L193.435 87.9958Z" fill="#563BA2"/>
<path fill-rule="evenodd" clip-rule="evenodd" d="M82.6747 87.8024C84.028 88.3826 85.5585 88.6727 87.2663 88.6727C88.9096 88.6727 90.2307 88.4471 91.2296 87.9958C92.2285 87.5123 92.9857 86.9482 93.5013 86.3034C94.0168 85.6587 94.4035 85.0946 94.6613 84.6111L95.3863 84.6111L95.3863 84.7561C95.3863 85.7554 95.7407 86.5452 96.4496 87.1254C97.1585 87.7057 98.0768 87.9958 99.2046 87.9958L102.926 87.9958L102.926 83.8374L100.896 83.8374C99.994 83.8374 99.5429 83.3539 99.5429 82.3869L99.5429 72.5712C99.5429 69.67 98.6568 67.4297 96.8846 65.8501C95.1124 64.2706 92.6796 63.4808 89.5863 63.4808C87.5885 63.4808 85.8808 63.8032 84.463 64.4479C83.0452 65.0926 81.9013 65.9468 81.0313 67.0106C80.1936 68.0421 79.5813 69.2026 79.1947 70.492L83.8347 71.991C84.1247 70.7015 84.7208 69.6539 85.623 68.848C86.5252 68.0421 87.8302 67.6392 89.538 67.6392C91.278 67.6392 92.5668 68.0583 93.4046 68.8964C94.2424 69.7345 94.6613 70.8466 94.6613 72.2327L94.6613 73.78L94.6613 77.6483L94.6613 78.1318C94.6613 80.1304 94.0491 81.7099 92.8246 82.8704C91.6002 83.9986 89.9891 84.5627 87.9913 84.5627C86.5413 84.5627 85.3974 84.2404 84.5596 83.5957C83.7219 82.951 83.303 82.0806 83.303 80.9846C83.303 79.8886 83.7058 79.0666 84.5113 78.5186C85.3169 77.9384 86.3802 77.6483 87.7013 77.6483L92.9681 77.6483L92.9607 73.78L87.4113 73.78C85.6713 73.78 84.1085 74.054 82.723 74.602C81.3697 75.15 80.2902 75.972 79.4847 77.068C78.7113 78.1318 78.3247 79.4857 78.3247 81.1297C78.3247 82.7414 78.7113 84.1114 79.4847 85.2397C80.2902 86.3679 81.3536 87.2222 82.6747 87.8024Z" fill="#563BA2"/>
<path fill-rule="evenodd" clip-rule="evenodd" d="M135.804 54.1487L135.804 87.9958L140.782 87.9958L140.782 75.9559L140.782 67.5425L140.782 54.1487L135.804 54.1487ZM142.64 66.0336C142.64 66.0336 142.49 66.536 142.483 68.0571C142.476 69.5782 142.619 70.0568 142.619 70.0568C143.875 68.703 145.535 68.026 147.597 68.026C149.401 68.026 150.819 68.5257 151.85 69.525C152.881 70.492 153.397 72.0071 153.397 74.0701L153.397 87.9958L158.375 87.9958L158.375 73.6833C158.375 71.6203 157.972 69.8634 157.167 68.4128C156.361 66.93 155.25 65.7857 153.832 64.9798C152.446 64.1739 150.851 63.771 149.047 63.771C147.533 63.771 146.276 63.9644 145.277 64.3512C144.31 64.7058 143.521 65.1732 142.909 65.7534C142.816 65.8464 142.726 65.9398 142.64 66.0336Z" fill="#563BA2"/>
<path fill-rule="evenodd" clip-rule="evenodd" d="M168.343 87.8024C169.697 88.3826 171.227 88.6727 172.935 88.6727C174.578 88.6727 175.899 88.4471 176.898 87.9958C177.897 87.5123 178.654 86.9482 179.17 86.3034C179.685 85.6587 180.072 85.0946 180.33 84.6111L181.055 84.6111L181.055 84.7561C181.055 85.7554 181.409 86.5452 182.118 87.1254C182.827 87.7057 183.745 87.9958 184.873 87.9958L188.595 87.9958L188.595 83.8374L186.565 83.8374C185.663 83.8374 185.211 83.3539 185.211 82.3869L185.211 72.5712C185.211 69.67 184.325 67.4297 182.553 65.8501C180.781 64.2706 178.348 63.4808 175.255 63.4808C173.257 63.4808 171.549 63.8032 170.132 64.4479C168.714 65.0926 167.57 65.9468 166.7 67.0106C165.862 68.0421 165.25 69.2026 164.863 70.492L169.503 71.991C169.793 70.7016 170.389 69.6539 171.292 68.848C172.194 68.0421 173.499 67.6392 175.207 67.6392C176.947 67.6392 178.235 68.0583 179.073 68.8964C179.911 69.7345 180.33 70.8466 180.33 72.2327L180.33 73.78L180.33 77.6483L180.33 78.1318C180.33 80.1304 179.718 81.7099 178.493 82.8704C177.269 83.9986 175.658 84.5627 173.66 84.5627C172.21 84.5627 171.066 84.2404 170.228 83.5957C169.39 82.951 168.972 82.0806 168.972 80.9846C168.972 79.8886 169.374 79.0666 170.18 78.5186C170.985 77.9384 172.049 77.6483 173.37 77.6483L178.634 77.6483L178.637 73.78L173.08 73.78C171.34 73.78 169.777 74.054 168.392 74.602C167.038 75.15 165.959 75.972 165.153 77.068C164.38 78.1318 163.993 79.4857 163.993 81.1297C163.993 82.7414 164.38 84.1114 165.153 85.2397C165.959 86.3679 167.022 87.2222 168.343 87.8024Z" fill="#563BA2"/>
<ellipse cx="24.3461" cy="26.2498" rx="0.573369" ry="2.31977" transform="rotate(180 24.3461 26.2498)" fill="#563BA2"/>
<ellipse cx="24.3461" cy="55.4558" rx="0.573369" ry="2.31473" transform="rotate(180 24.3461 55.4558)" fill="#563BA2"/>
<ellipse cx="101.083" cy="36.0907" rx="0.573369" ry="2.24705" transform="rotate(180 101.083 36.0907)" fill="#563BA2"/>
<ellipse cx="75.3768" cy="66.314" rx="0.573369" ry="2.24705" transform="rotate(180 75.3768 66.314)" fill="#563BA2"/>
<ellipse cx="102.957" cy="85.9351" rx="0.573369" ry="2.07745" transform="rotate(180 102.957 85.9351)" fill="#563BA2"/>
<ellipse cx="0.573345" cy="2.44278" rx="0.573345" ry="2.44278" transform="matrix(0.318338 -0.947977 0.947898 0.318573 79.0371 71.022)" fill="#563BA2"/>
<ellipse cx="92.983" cy="75.7112" rx="0.573369" ry="1.92929" fill="#563BA2"/>
<ellipse cx="64.304" cy="64.1825" rx="0.573369" ry="2.44267" transform="rotate(-90 64.304 64.1825)" fill="#563BA2"/>
<ellipse cx="188.627" cy="85.9164" rx="0.573369" ry="2.07745" transform="rotate(180 188.627 85.9164)" fill="#563BA2"/>
<ellipse cx="0.573345" cy="2.44278" rx="0.573345" ry="2.44278" transform="matrix(0.318338 -0.947977 0.947898 0.318573 164.713 71.0025)" fill="#563BA2"/>
<ellipse cx="178.655" cy="75.7154" rx="0.573369" ry="1.92929" fill="#563BA2"/>
<ellipse cx="195.888" cy="64.1859" rx="0.573369" ry="2.44267" transform="rotate(-90 195.888 64.1859)" fill="#563BA2"/>
<ellipse cx="207" cy="66.3115" rx="0.573369" ry="2.24705" transform="rotate(180 207 66.3115)" fill="#563BA2"/>
<ellipse cx="138.273" cy="54.1503" rx="0.573369" ry="2.44267" transform="rotate(-90 138.273 54.1503)" fill="#563BA2"/>
<ellipse cx="0.481458" cy="2.46779" rx="0.481458" ry="2.46779" transform="matrix(-0.202977 -0.979183 -0.97915 0.203137 130.033 73.1272)" fill="#563BA2"/>
<ellipse cx="0.481454" cy="2.48799" rx="0.481454" ry="2.48799" transform="matrix(-0.238419 0.971162 -0.971117 -0.238604 130.2 79.1538)" fill="#563BA2"/>
<ellipse cx="37.1273" cy="40.734" rx="0.573369" ry="2.39739" transform="rotate(180 37.1273 40.734)" fill="#563BA2"/>
<ellipse cx="128.626" cy="55.7015" rx="0.573369" ry="2.07745" transform="rotate(180 128.626 55.7015)" fill="#563BA2"/>
<ellipse cx="0.573345" cy="2.44278" rx="0.573345" ry="2.44278" transform="matrix(0.318338 -0.947977 0.947898 0.318573 104.711 40.7885)" fill="#563BA2"/>
<ellipse cx="118.654" cy="45.5014" rx="0.573369" ry="1.92929" fill="#563BA2"/>
<ellipse cx="89.971" cy="33.9651" rx="0.573369" ry="2.44267" transform="rotate(-90 89.971 33.9651)" fill="#563BA2"/>
<path d="M221.544 74.7488L221.583 73.3886C221.639 71.4616 222.062 69.8857 222.853 68.6608C223.68 67.437 224.973 66.4348 226.732 65.6542L227.706 65.2288C229.425 64.4848 230.75 63.6726 231.682 62.7922C232.613 61.9118 233.1 60.7159 233.144 59.2046C233.176 58.1088 232.92 57.1749 232.376 56.4027C231.872 55.5939 231.135 54.9673 230.167 54.5231C229.199 54.0789 228.055 53.8375 226.736 53.799C225.379 53.7594 224.147 53.9504 223.041 54.3719C221.972 54.7945 221.104 55.4499 220.437 56.338C219.808 57.2272 219.473 58.3519 219.434 59.7122L219.398 60.959L212.047 60.7446L212.08 59.611C212.156 57.004 212.862 54.7745 214.198 52.9227C215.535 51.0709 217.31 49.6857 219.525 48.7671C221.741 47.8108 224.206 47.3722 226.92 47.4513C229.597 47.5294 231.957 48.0899 234.002 49.1328C236.085 50.1768 237.704 51.5854 238.86 53.3586C240.015 55.1319 240.56 57.152 240.495 59.419C240.429 61.6861 239.96 63.5443 239.088 64.9936C238.217 66.4052 237.127 67.5457 235.819 68.4152C234.55 69.2479 233.246 69.9662 231.908 70.57L230.934 70.9954C230.247 71.2778 229.765 71.6419 229.488 72.0876C229.212 72.4956 229.062 73.1152 229.037 73.9464L229.008 74.9666L221.544 74.7488ZM225.101 88.6932C223.593 88.6492 222.325 88.1206 221.298 87.1074C220.31 86.0576 219.839 84.7392 219.885 83.1522C219.931 81.5653 220.477 80.2955 221.524 79.3428C222.609 78.3535 223.905 77.8808 225.413 77.9248C226.959 77.9699 228.226 78.5173 229.214 79.5672C230.203 80.5793 230.675 81.8788 230.629 83.4657C230.582 85.0526 230.036 86.3413 228.988 87.3318C227.942 88.2845 226.646 88.7383 225.101 88.6932Z" fill="#F27405"/>
<path d="M215.709 61.3384C217.739 61.3922 219.39 61.2088 219.398 60.9289C219.405 60.649 217.765 60.3784 215.735 60.3247C213.705 60.2709 212.054 60.4542 212.046 60.7341C212.039 61.0141 213.679 61.2846 215.709 61.3384Z" fill="#F27405"/>
<path d="M225.262 75.3693C227.323 75.4239 229 75.2412 229.007 74.9613C229.014 74.6813 227.35 74.4101 225.289 74.3555C223.228 74.3009 221.551 74.4836 221.544 74.7635C221.536 75.0435 223.201 75.3147 225.262 75.3693Z" fill="#F27405"/>
<path d="M1.19192 22.2963C1.26015 21.9325 1.71634 21.7263 2.16606 21.8559L14.9084 25.5278C15.2876 25.6371 15.5295 25.95 15.472 26.2566L15.1967 27.7242C15.1356 28.0504 14.7581 28.2567 14.3425 28.1912L1.29721 26.1343C0.859406 26.0653 0.549249 25.7225 0.613701 25.3789L1.19192 22.2963Z" fill="#F27405"/>
<path d="M8.76557 6.15554C9.02715 5.89385 9.52003 5.98133 9.81804 6.34234L18.2619 16.5713C18.5132 16.8757 18.5363 17.2706 18.3157 17.4913L17.2603 18.5471C17.0257 18.7818 16.5978 18.7389 16.2918 18.45L6.68646 9.38298C6.3641 9.07869 6.30159 8.62053 6.5487 8.37332L8.76557 6.15554Z" fill="#F27405"/>
<path d="M28.0371 0.159687C28.3944 0.0639 28.7776 0.386198 28.8552 0.847917L31.0554 13.9301C31.1209 14.3194 30.9435 14.673 30.6422 14.7537L29.2005 15.1402C28.8801 15.2261 28.5309 14.9749 28.4103 14.5717L24.6235 1.91475C24.4964 1.48998 24.6712 1.06194 25.0088 0.971452L28.0371 0.159687Z" fill="#F27405"/>
</g>
<defs>
<clipPath id="clip0_102_325">
<rect width="240" height="88.6962" fill="white" transform="translate(0.5)"/>
</clipPath>
</defs>
</svg>
