<svg width="172" height="154" viewBox="0 0 172 154" fill="none" xmlns="http://www.w3.org/2000/svg">
<g clip-path="url(#clip0_1_18)">
<path d="M170 58.7024C169.939 58.7025 169.879 58.6837 169.829 58.6487L86.8609 0.867628C86.6084 0.692608 86.3084 0.599074 86.0011 0.599598C85.6939 0.600122 85.3942 0.694677 85.1423 0.870557L2.77229 58.6481C2.70714 58.6938 2.6265 58.7117 2.54812 58.698C2.46974 58.6842 2.40003 58.6399 2.35433 58.5747C2.30863 58.5096 2.29069 58.429 2.30444 58.3506C2.3182 58.2722 2.36253 58.2025 2.42768 58.1568L84.7978 0.379249C85.1505 0.133054 85.5701 0.000712071 86.0002 5.23046e-06C86.4303 -0.00070161 86.8503 0.130259 87.2038 0.375294L170.171 58.1562C170.224 58.1927 170.263 58.245 170.284 58.3055C170.305 58.3659 170.305 58.4314 170.286 58.4924C170.267 58.5533 170.229 58.6065 170.177 58.6443C170.126 58.6821 170.064 58.7025 170 58.7024Z" fill="#3F3D56"/>
<path d="M7.47925 60.7506L86.0828 2.4957L165.283 64.8957L90.1328 109.446L49.3328 100.146L7.47925 60.7506Z" fill="#E6E6E6"/>
<path d="M52.7767 136.962H13.9446C13.7062 136.963 13.47 136.916 13.2496 136.825C13.0292 136.734 12.829 136.6 12.6602 136.432C12.4915 136.263 12.3577 136.063 12.2664 135.843C12.1751 135.623 12.1281 135.387 12.1281 135.148C12.1281 134.91 12.1751 134.674 12.2664 134.453C12.3577 134.233 12.4915 134.033 12.6602 133.864C12.829 133.696 13.0292 133.562 13.2496 133.471C13.47 133.38 13.7062 133.334 13.9446 133.334H52.7767C53.0151 133.334 53.2513 133.38 53.4717 133.471C53.6921 133.562 53.8923 133.696 54.061 133.864C54.2297 134.033 54.3636 134.233 54.4549 134.453C54.5462 134.674 54.5932 134.91 54.5932 135.148C54.5932 135.387 54.5462 135.623 54.4549 135.843C54.3636 136.063 54.2297 136.263 54.061 136.432C53.8923 136.6 53.6921 136.734 53.4717 136.825C53.2513 136.916 53.0151 136.963 52.7767 136.962Z" fill="#724FD8"/>
<path d="M27.8767 129.162H13.9446C13.7062 129.163 13.47 129.116 13.2496 129.025C13.0292 128.934 12.829 128.8 12.6602 128.632C12.4915 128.463 12.3577 128.263 12.2664 128.043C12.1751 127.823 12.1281 127.587 12.1281 127.348C12.1281 127.11 12.1751 126.874 12.2664 126.653C12.3577 126.433 12.4915 126.233 12.6602 126.064C12.829 125.896 13.0292 125.762 13.2496 125.671C13.47 125.58 13.7062 125.534 13.9446 125.534H27.8767C28.1151 125.534 28.3513 125.58 28.5717 125.671C28.7921 125.762 28.9923 125.896 29.161 126.064C29.3297 126.233 29.4636 126.433 29.5549 126.653C29.6462 126.874 29.6932 127.11 29.6932 127.348C29.6932 127.587 29.6462 127.823 29.5549 128.043C29.4636 128.263 29.3297 128.463 29.161 128.632C28.9923 128.8 28.7921 128.934 28.5717 129.025C28.3513 129.116 28.1151 129.163 27.8767 129.162Z" fill="#724FD8"/>
<path d="M87.1881 93.1979C86.8929 93.1982 86.6006 93.1409 86.3273 93.0293L37.8501 72.9146V9.95239C37.8507 9.39564 38.0722 8.86187 38.4659 8.46819C38.8596 8.0745 39.3933 7.85304 39.9501 7.85239H132.95C133.507 7.85304 134.041 8.0745 134.434 8.46819C134.828 8.86187 135.049 9.39564 135.05 9.95239V72.9585L134.959 72.9975L88.0749 93.0194C87.7941 93.1374 87.4926 93.1981 87.1881 93.1979Z" fill="white"/>
<path d="M87.188 93.3477C86.8733 93.3481 86.5616 93.2871 86.2702 93.1681L37.7001 73.0148V9.95239C37.7007 9.35586 37.938 8.78395 38.3598 8.36214C38.7816 7.94033 39.3535 7.70306 39.9501 7.70238H132.95C133.547 7.70306 134.119 7.94033 134.54 8.36214C134.962 8.78395 135.199 9.35586 135.2 9.95239V73.0576L88.1338 93.1573C87.8344 93.2832 87.5128 93.348 87.188 93.3477ZM38.3001 72.614L86.499 92.6134C86.9485 92.7958 87.452 92.7928 87.8994 92.605L134.6 72.6615V9.95239C134.6 9.51494 134.426 9.09555 134.116 8.78623C133.807 8.47691 133.388 8.3029 132.95 8.30238H39.9501C39.5126 8.3029 39.0933 8.47691 38.7839 8.78623C38.4746 9.09555 38.3006 9.51494 38.3001 9.95239L38.3001 72.614Z" fill="#3F3D56"/>
<path d="M169.4 58.1024H169.34L134.9 72.8085L87.7791 92.9295C87.5949 93.0069 87.3974 93.0473 87.1976 93.0483C86.9979 93.0494 86.7999 93.011 86.6149 92.9355L38 72.7665L2.71396 58.1265L2.66006 58.1024H2.6C2.04324 58.1031 1.50945 58.3245 1.11576 58.7182C0.722064 59.1119 0.500618 59.6457 0.5 60.2024V151.402C0.500619 151.959 0.722064 152.493 1.11576 152.887C1.50945 153.28 2.04324 153.502 2.6 153.502H169.4C169.957 153.502 170.491 153.28 170.884 152.887C171.278 152.493 171.499 151.959 171.5 151.402V60.2024C171.499 59.6457 171.278 59.1119 170.884 58.7182C170.491 58.3245 169.957 58.1031 169.4 58.1024ZM170.9 151.402C170.9 151.8 170.742 152.182 170.46 152.463C170.179 152.744 169.798 152.902 169.4 152.902H2.6C2.20222 152.902 1.82079 152.744 1.53952 152.463C1.25825 152.182 1.10016 151.8 1.1 151.402V60.2024C1.10054 59.8145 1.25101 59.4419 1.51993 59.1623C1.78886 58.8828 2.15543 58.718 2.54302 58.7024L38 73.4144L86.3841 93.4904C86.9078 93.7036 87.4947 93.7003 88.0161 93.4815L134.9 73.4595L169.46 58.7024C169.847 58.7192 170.213 58.8844 170.481 59.1638C170.749 59.4432 170.899 59.8152 170.9 60.2024V151.402Z" fill="#3F3D56"/>
<path d="M86.7036 75.3441C84.914 75.3474 83.1718 74.7687 81.7398 73.6953L81.651 73.6286L62.9578 59.3164C62.092 58.653 61.3654 57.8257 60.8194 56.8816C60.2735 55.9374 59.9188 54.895 59.7757 53.8138C59.6326 52.7326 59.7038 51.6338 59.9853 50.5802C60.2669 49.5265 60.7532 48.5386 61.4165 47.6729C62.0798 46.8071 62.9071 46.0806 63.8513 45.5346C64.7954 44.9886 65.8378 44.6339 66.919 44.4908C68.0002 44.3477 69.099 44.4189 70.1527 44.7004C71.2063 44.982 72.1943 45.4683 73.06 46.1316L85.1681 55.4159L113.781 18.0999C114.445 17.2344 115.273 16.5081 116.217 15.9624C117.161 15.4168 118.204 15.0625 119.285 14.9197C120.366 14.777 121.465 14.8486 122.519 15.1306C123.572 15.4125 124.56 15.8992 125.425 16.5628L125.248 16.8044L125.43 16.5664C127.176 17.9081 128.318 19.8876 128.606 22.0706C128.894 24.2535 128.305 26.4616 126.967 28.2104L93.3109 72.103C92.5325 73.1144 91.5316 73.9329 90.3857 74.495C89.2398 75.0571 87.9799 75.3476 86.7036 75.3441Z" fill="#724FD8"/>
</g>
<defs>
<clipPath id="clip0_1_18">
<rect width="171" height="153.502" fill="white" transform="translate(0.5)"/>
</clipPath>
</defs>
</svg>
