<svg width="20" height="21" viewBox="0 0 20 21" fill="none" xmlns="http://www.w3.org/2000/svg">
<g opacity="0.8">
<path fill-rule="evenodd" clip-rule="evenodd" d="M3.3335 4.86296C2.87707 4.86296 2.50016 5.23986 2.50016 5.69629V15.6963C2.50016 16.1527 2.87707 16.5296 3.3335 16.5296H16.6668C17.1233 16.5296 17.5002 16.1527 17.5002 15.6963V5.69629C17.5002 5.23986 17.1233 4.86296 16.6668 4.86296H3.3335ZM0.833496 5.69629C0.833496 4.31939 1.95659 3.19629 3.3335 3.19629H16.6668C18.0437 3.19629 19.1668 4.31939 19.1668 5.69629V15.6963C19.1668 17.0732 18.0437 18.1963 16.6668 18.1963H3.3335C1.95659 18.1963 0.833496 17.0732 0.833496 15.6963V5.69629Z" fill="#4D4A4F"/>
<path fill-rule="evenodd" clip-rule="evenodd" d="M0.984208 5.2188C1.24814 4.84176 1.76775 4.75006 2.14479 5.01399L10.0002 10.5128L17.8557 5.01399C18.2327 4.75006 18.7523 4.84176 19.0163 5.2188C19.2802 5.59584 19.1885 6.11545 18.8115 6.37938L10.4781 12.2127C10.1912 12.4136 9.80928 12.4136 9.52235 12.2127L1.18902 6.37938C0.811975 6.11545 0.720279 5.59584 0.984208 5.2188Z" fill="#4D4A4F"/>
</g>
</svg>
