<svg width="19" height="15" viewBox="0 0 19 15" fill="none" xmlns="http://www.w3.org/2000/svg">
<path d="M16.2622 3.1786L17.33 1.93274C17.6391 1.59532 17.7234 1.33577 17.7515 1.20599C16.9085 1.67319 16.1217 1.82892 15.6159 1.82892H15.4192L15.3068 1.7251C14.6324 1.18004 13.7894 0.894531 12.8902 0.894531C10.9233 0.894531 9.37779 2.39994 9.37779 4.13894C9.37779 4.24276 9.37779 4.3985 9.40589 4.50232L9.49019 5.02142L8.90009 4.99547C5.30334 4.89165 2.35288 2.03656 1.87518 1.54341C1.08839 2.84118 1.53799 4.08703 2.01568 4.86569L2.97107 6.31919L1.45369 5.54053C1.48179 6.63065 1.93138 7.48718 2.80247 8.1101L3.56116 8.62921L2.80247 8.91472C3.28017 10.2384 4.34795 10.7835 5.13474 10.9911L6.17443 11.2507L5.19094 11.8736C3.61736 12.9118 1.65039 12.834 0.779297 12.7561C2.54957 13.8981 4.65705 14.1577 6.11823 14.1577C7.21412 14.1577 8.02901 14.0539 8.2257 13.976C16.0936 12.263 16.4589 5.77413 16.4589 4.47636V4.29468L16.6275 4.19085C17.5829 3.36028 17.9763 2.91904 18.2011 2.65949C18.1168 2.68545 18.0044 2.73736 17.892 2.76331L16.2622 3.1786Z" fill="#CDCED6"/>
</svg>
